<svg width="48" height="38" viewBox="0 0 48 38" fill="none" xmlns="http://www.w3.org/2000/svg">
<path fill-rule="evenodd" clip-rule="evenodd" d="M5.99973 5.06789C6.0819 5.11495 6.16214 5.16734 6.23998 5.22512L21.12 16.2687C22.8267 17.5354 25.1732 17.5354 26.88 16.2688C26.88 16.2687 26.88 16.2687 26.88 16.2687L41.76 5.22501C41.8378 5.16725 41.918 5.11488 42.0002 5.06783C41.6471 4.86569 41.2372 4.75 40.8 4.75H7.2C6.76274 4.75 6.3528 4.86572 5.99973 5.06789ZM43.2 10.0937L29.76 20.0688L29.76 20.0688C26.3466 22.6021 21.6534 22.6021 18.24 20.0688L18.24 20.0688L4.8 10.0939V30.875C4.8 32.1867 5.87452 33.25 7.2 33.25H40.8C42.1255 33.25 43.2 32.1867 43.2 30.875V10.0937ZM0 7.125C0 3.18997 3.22355 0 7.2 0H40.8C44.7764 0 48 3.18997 48 7.125V30.875C48 34.81 44.7764 38 40.8 38H7.2C3.22355 38 0 34.81 0 30.875V7.125Z" fill="#BECDCA" style="opacity: 0.5"/>
</svg>
