<?xml version="1.0" encoding="UTF-8"?>
<!DOCTYPE svg PUBLIC "-//W3C//DTD SVG 1.1//EN" "http://www.w3.org/Graphics/SVG/1.1/DTD/svg11.dtd">
<svg xmlns="http://www.w3.org/2000/svg" version="1.1" width="2000px" height="50px" style="shape-rendering:geometricPrecision; text-rendering:geometricPrecision; image-rendering:optimizeQuality; fill-rule:evenodd; clip-rule:evenodd" xmlns:xlink="http://www.w3.org/1999/xlink">
<g><path style="opacity:1" fill="#fdfdfd" d="M -0.5,-0.5 C 35.1667,-0.5 70.8333,-0.5 106.5,-0.5C 106.5,5.5 106.5,11.5 106.5,17.5C 98.8333,17.5 91.1667,17.5 83.5,17.5C 83.5,19.5 83.5,21.5 83.5,23.5C 87.5,23.5 91.5,23.5 95.5,23.5C 95.5,32.1667 95.5,40.8333 95.5,49.5C 92.5,49.5 89.5,49.5 86.5,49.5C 86.5,44.5 86.5,39.5 86.5,34.5C 81.5,34.5 76.5,34.5 71.5,34.5C 71.5,31.8333 71.5,29.1667 71.5,26.5C 74.5,26.5 77.5,26.5 80.5,26.5C 80.5,20.5 80.5,14.5 80.5,8.5C 74.8333,8.5 69.1667,8.5 63.5,8.5C 63.5,11.5 63.5,14.5 63.5,17.5C 53.8333,17.5 44.1667,17.5 34.5,17.5C 34.5,28.1667 34.5,38.8333 34.5,49.5C 22.8333,49.5 11.1667,49.5 -0.5,49.5C -0.5,32.8333 -0.5,16.1667 -0.5,-0.5 Z"/></g>
<g><path style="opacity:1" fill="#000000" d="M 106.5,-0.5 C 114.833,-0.5 123.167,-0.5 131.5,-0.5C 131.5,3.5 131.5,7.5 131.5,11.5C 135.5,11.5 139.5,11.5 143.5,11.5C 143.5,15.5 143.5,19.5 143.5,23.5C 147.5,23.5 151.5,23.5 155.5,23.5C 163.433,25.4684 171.766,26.135 180.5,25.5C 180.5,28.8333 180.5,32.1667 180.5,35.5C 183.5,35.5 186.5,35.5 189.5,35.5C 189.5,40.1667 189.5,44.8333 189.5,49.5C 158.167,49.5 126.833,49.5 95.5,49.5C 95.5,40.8333 95.5,32.1667 95.5,23.5C 91.5,23.5 87.5,23.5 83.5,23.5C 83.5,21.5 83.5,19.5 83.5,17.5C 91.1667,17.5 98.8333,17.5 106.5,17.5C 106.5,11.5 106.5,5.5 106.5,-0.5 Z"/></g>
<g><path style="opacity:1" fill="#fefffe" d="M 131.5,-0.5 C 139.5,-0.5 147.5,-0.5 155.5,-0.5C 155.5,7.5 155.5,15.5 155.5,23.5C 151.5,23.5 147.5,23.5 143.5,23.5C 143.5,19.5 143.5,15.5 143.5,11.5C 139.5,11.5 135.5,11.5 131.5,11.5C 131.5,7.5 131.5,3.5 131.5,-0.5 Z"/></g>
<g><path style="opacity:1" fill="#000000" d="M 155.5,-0.5 C 163.5,-0.5 171.5,-0.5 179.5,-0.5C 179.5,3.5 179.5,7.5 179.5,11.5C 175.5,11.5 171.5,11.5 167.5,11.5C 167.5,15.5 167.5,19.5 167.5,23.5C 163.5,23.5 159.5,23.5 155.5,23.5C 155.5,15.5 155.5,7.5 155.5,-0.5 Z"/></g>
<g><path style="opacity:1" fill="#fefffe" d="M 179.5,-0.5 C 187.5,-0.5 195.5,-0.5 203.5,-0.5C 203.5,3.5 203.5,7.5 203.5,11.5C 195.5,11.5 187.5,11.5 179.5,11.5C 179.5,7.5 179.5,3.5 179.5,-0.5 Z"/></g>
<g><path style="opacity:1" fill="#000000" d="M 203.5,-0.5 C 211.5,-0.5 219.5,-0.5 227.5,-0.5C 227.5,3.5 227.5,7.5 227.5,11.5C 219.5,11.5 211.5,11.5 203.5,11.5C 203.5,7.5 203.5,3.5 203.5,-0.5 Z"/></g>
<g><path style="opacity:1" fill="#fcfcfc" d="M 227.5,-0.5 C 246.167,-0.5 264.833,-0.5 283.5,-0.5C 283.5,5.5 283.5,11.5 283.5,17.5C 281.833,17.5 280.167,17.5 278.5,17.5C 278.5,15.8333 278.5,14.1667 278.5,12.5C 277.5,12.5 276.5,12.5 275.5,12.5C 275.5,16.1667 275.5,19.8333 275.5,23.5C 267.5,23.5 259.5,23.5 251.5,23.5C 251.5,19.5 251.5,15.5 251.5,11.5C 243.5,11.5 235.5,11.5 227.5,11.5C 227.5,7.5 227.5,3.5 227.5,-0.5 Z"/></g>
<g><path style="opacity:1" fill="#010101" d="M 283.5,-0.5 C 295.167,-0.5 306.833,-0.5 318.5,-0.5C 318.5,5.5 318.5,11.5 318.5,17.5C 320.167,17.5 321.833,17.5 323.5,17.5C 323.5,19.5 323.5,21.5 323.5,23.5C 321.833,23.5 320.167,23.5 318.5,23.5C 318.5,27.5 318.5,31.5 318.5,35.5C 328.167,35.5 337.833,35.5 347.5,35.5C 347.5,31.5 347.5,27.5 347.5,23.5C 351.5,23.5 355.5,23.5 359.5,23.5C 359.5,31.5 359.5,39.5 359.5,47.5C 355.029,46.9106 351.029,47.5772 347.5,49.5C 343.5,49.5 339.5,49.5 335.5,49.5C 333.085,48.1858 330.252,47.5191 327,47.5C 323.748,47.5191 320.915,48.1858 318.5,49.5C 305.833,49.5 293.167,49.5 280.5,49.5C 280.821,47.9519 281.821,47.2852 283.5,47.5C 283.5,39.5 283.5,31.5 283.5,23.5C 280.833,23.5 278.167,23.5 275.5,23.5C 275.5,19.8333 275.5,16.1667 275.5,12.5C 276.5,12.5 277.5,12.5 278.5,12.5C 278.5,14.1667 278.5,15.8333 278.5,17.5C 280.167,17.5 281.833,17.5 283.5,17.5C 283.5,11.5 283.5,5.5 283.5,-0.5 Z"/></g>
<g><path style="opacity:1" fill="#fdfdfd" d="M 318.5,-0.5 C 321.833,-0.5 325.167,-0.5 328.5,-0.5C 328.5,4.5 328.5,9.5 328.5,14.5C 337.833,14.5 347.167,14.5 356.5,14.5C 356.5,9.5 356.5,4.5 356.5,-0.5C 373.5,-0.5 390.5,-0.5 407.5,-0.5C 407.5,11.5 407.5,23.5 407.5,35.5C 399.5,35.5 391.5,35.5 383.5,35.5C 383.5,31.5 383.5,27.5 383.5,23.5C 387.5,23.5 391.5,23.5 395.5,23.5C 395.5,19.8333 395.5,16.1667 395.5,12.5C 383.5,12.5 371.5,12.5 359.5,12.5C 359.5,16.1667 359.5,19.8333 359.5,23.5C 355.5,23.5 351.5,23.5 347.5,23.5C 347.5,27.5 347.5,31.5 347.5,35.5C 337.833,35.5 328.167,35.5 318.5,35.5C 318.5,31.5 318.5,27.5 318.5,23.5C 320.167,23.5 321.833,23.5 323.5,23.5C 323.5,21.5 323.5,19.5 323.5,17.5C 321.833,17.5 320.167,17.5 318.5,17.5C 318.5,11.5 318.5,5.5 318.5,-0.5 Z"/></g>
<g><path style="opacity:1" fill="#060606" d="M 328.5,-0.5 C 337.833,-0.5 347.167,-0.5 356.5,-0.5C 356.5,4.5 356.5,9.5 356.5,14.5C 347.167,14.5 337.833,14.5 328.5,14.5C 328.5,9.5 328.5,4.5 328.5,-0.5 Z"/></g>
<g><path style="opacity:1" fill="#000000" d="M 407.5,-0.5 C 415.5,-0.5 423.5,-0.5 431.5,-0.5C 431.5,3.5 431.5,7.5 431.5,11.5C 427.5,11.5 423.5,11.5 419.5,11.5C 419.5,15.5 419.5,19.5 419.5,23.5C 423.5,23.5 427.5,23.5 431.5,23.5C 431.5,27.5 431.5,31.5 431.5,35.5C 423.5,35.5 415.5,35.5 407.5,35.5C 407.5,23.5 407.5,11.5 407.5,-0.5 Z"/></g>
<g><path style="opacity:1" fill="#fefefe" d="M 431.5,-0.5 C 444.167,-0.5 456.833,-0.5 469.5,-0.5C 469.5,2.83333 469.5,6.16667 469.5,9.5C 493.994,10.4977 518.661,10.831 543.5,10.5C 543.5,13.8333 543.5,17.1667 543.5,20.5C 538.305,20.1795 533.305,20.5128 528.5,21.5C 528.5,22.5 528.5,23.5 528.5,24.5C 533.305,25.4872 538.305,25.8205 543.5,25.5C 543.187,29.0419 543.521,32.3752 544.5,35.5C 546.833,35.5 549.167,35.5 551.5,35.5C 551.5,40.1667 551.5,44.8333 551.5,49.5C 535.5,49.5 519.5,49.5 503.5,49.5C 503.5,44.8333 503.5,40.1667 503.5,35.5C 506.833,35.5 510.167,35.5 513.5,35.5C 513.5,31.5 513.5,27.5 513.5,23.5C 506.167,23.5 498.833,23.5 491.5,23.5C 491.5,32.1667 491.5,40.8333 491.5,49.5C 483.5,49.5 475.5,49.5 467.5,49.5C 471.029,47.5772 475.029,46.9106 479.5,47.5C 479.5,43.5 479.5,39.5 479.5,35.5C 463.5,35.5 447.5,35.5 431.5,35.5C 431.5,31.5 431.5,27.5 431.5,23.5C 434.167,23.5 436.833,23.5 439.5,23.5C 439.5,19.5 439.5,15.5 439.5,11.5C 436.833,11.5 434.167,11.5 431.5,11.5C 431.5,7.5 431.5,3.5 431.5,-0.5 Z"/></g>
<g><path style="opacity:1" fill="#000000" d="M 469.5,-0.5 C 492.833,-0.5 516.167,-0.5 539.5,-0.5C 539.5,2.16667 539.5,4.83333 539.5,7.5C 552.833,7.5 566.167,7.5 579.5,7.5C 579.5,13.1667 579.5,18.8333 579.5,24.5C 568.5,24.5 557.5,24.5 546.5,24.5C 546.205,26.7354 546.539,28.7354 547.5,30.5C 548.833,30.5 550.167,30.5 551.5,30.5C 551.5,32.1667 551.5,33.8333 551.5,35.5C 549.167,35.5 546.833,35.5 544.5,35.5C 544.5,31.8333 544.5,28.1667 544.5,24.5C 539.167,24.5 533.833,24.5 528.5,24.5C 528.5,23.5 528.5,22.5 528.5,21.5C 533.833,21.5 539.167,21.5 544.5,21.5C 544.5,17.5 544.5,13.5 544.5,9.5C 519.5,9.5 494.5,9.5 469.5,9.5C 469.5,6.16667 469.5,2.83333 469.5,-0.5 Z"/></g>
<g><path style="opacity:1" fill="#fcfcfc" d="M 539.5,-0.5 C 563.5,-0.5 587.5,-0.5 611.5,-0.5C 611.5,3.5 611.5,7.5 611.5,11.5C 604.5,11.5 597.5,11.5 590.5,11.5C 590.5,15.5 590.5,19.5 590.5,23.5C 601.5,23.5 612.5,23.5 623.5,23.5C 623.5,19.5 623.5,15.5 623.5,11.5C 627.5,11.5 631.5,11.5 635.5,11.5C 635.5,7.5 635.5,3.5 635.5,-0.5C 647.5,-0.5 659.5,-0.5 671.5,-0.5C 671.5,7.5 671.5,15.5 671.5,23.5C 667.5,23.5 663.5,23.5 659.5,23.5C 659.5,32.1667 659.5,40.8333 659.5,49.5C 647.5,49.5 635.5,49.5 623.5,49.5C 623.5,44.8333 623.5,40.1667 623.5,35.5C 615.5,35.5 607.5,35.5 599.5,35.5C 599.5,40.1667 599.5,44.8333 599.5,49.5C 595.5,49.5 591.5,49.5 587.5,49.5C 587.5,42.5 587.5,35.5 587.5,28.5C 584.102,28.1796 580.768,28.513 577.5,29.5C 575.896,31.1789 575.229,33.1789 575.5,35.5C 567.5,35.5 559.5,35.5 551.5,35.5C 551.5,33.8333 551.5,32.1667 551.5,30.5C 550.167,30.5 548.833,30.5 547.5,30.5C 547.5,28.8333 547.5,27.1667 547.5,25.5C 558.346,25.8278 569.013,25.4944 579.5,24.5C 579.5,18.8333 579.5,13.1667 579.5,7.5C 566.167,7.5 552.833,7.5 539.5,7.5C 539.5,4.83333 539.5,2.16667 539.5,-0.5 Z"/></g>
<g><path style="opacity:1" fill="#000000" d="M 611.5,-0.5 C 619.5,-0.5 627.5,-0.5 635.5,-0.5C 635.5,3.5 635.5,7.5 635.5,11.5C 631.5,11.5 627.5,11.5 623.5,11.5C 623.5,15.5 623.5,19.5 623.5,23.5C 612.5,23.5 601.5,23.5 590.5,23.5C 590.5,19.5 590.5,15.5 590.5,11.5C 597.5,11.5 604.5,11.5 611.5,11.5C 611.5,7.5 611.5,3.5 611.5,-0.5 Z"/></g>
<g><path style="opacity:1" fill="#000000" d="M 671.5,-0.5 C 687.5,-0.5 703.5,-0.5 719.5,-0.5C 719.5,3.5 719.5,7.5 719.5,11.5C 707.5,11.5 695.5,11.5 683.5,11.5C 683.5,15.5 683.5,19.5 683.5,23.5C 679.5,23.5 675.5,23.5 671.5,23.5C 671.5,15.5 671.5,7.5 671.5,-0.5 Z"/></g>
<g><path style="opacity:1" fill="#fefefe" d="M 719.5,-0.5 C 739.5,-0.5 759.5,-0.5 779.5,-0.5C 779.5,3.5 779.5,7.5 779.5,11.5C 775.5,11.5 771.5,11.5 767.5,11.5C 767.5,13.5 767.5,15.5 767.5,17.5C 759.5,17.5 751.5,17.5 743.5,17.5C 743.5,23.5 743.5,29.5 743.5,35.5C 739.5,35.5 735.5,35.5 731.5,35.5C 731.5,39.5 731.5,43.5 731.5,47.5C 715.5,47.5 699.5,47.5 683.5,47.5C 683.5,43.5 683.5,39.5 683.5,35.5C 679.5,35.5 675.5,35.5 671.5,35.5C 671.5,31.5 671.5,27.5 671.5,23.5C 675.5,23.5 679.5,23.5 683.5,23.5C 683.5,19.5 683.5,15.5 683.5,11.5C 695.5,11.5 707.5,11.5 719.5,11.5C 719.5,7.5 719.5,3.5 719.5,-0.5 Z"/></g>
<g><path style="opacity:1" fill="#000000" d="M 779.5,-0.5 C 791.5,-0.5 803.5,-0.5 815.5,-0.5C 815.5,3.5 815.5,7.5 815.5,11.5C 819.5,11.5 823.5,11.5 827.5,11.5C 827.5,7.5 827.5,3.5 827.5,-0.5C 847.5,-0.5 867.5,-0.5 887.5,-0.5C 887.5,3.5 887.5,7.5 887.5,11.5C 891.5,11.5 895.5,11.5 899.5,11.5C 899.5,7.5 899.5,3.5 899.5,-0.5C 903.5,-0.5 907.5,-0.5 911.5,-0.5C 911.5,7.5 911.5,15.5 911.5,23.5C 907.5,23.5 903.5,23.5 899.5,23.5C 899.5,27.5 899.5,31.5 899.5,35.5C 891.5,35.5 883.5,35.5 875.5,35.5C 875.5,40.1667 875.5,44.8333 875.5,49.5C 867.5,49.5 859.5,49.5 851.5,49.5C 851.5,44.8333 851.5,40.1667 851.5,35.5C 831.5,35.5 811.5,35.5 791.5,35.5C 791.5,31.5 791.5,27.5 791.5,23.5C 787.5,23.5 783.5,23.5 779.5,23.5C 779.5,27.5 779.5,31.5 779.5,35.5C 775.5,35.5 771.5,35.5 767.5,35.5C 767.5,31.5 767.5,27.5 767.5,23.5C 763.5,23.5 759.5,23.5 755.5,23.5C 755.5,27.5 755.5,31.5 755.5,35.5C 751.5,35.5 747.5,35.5 743.5,35.5C 743.5,29.5 743.5,23.5 743.5,17.5C 751.5,17.5 759.5,17.5 767.5,17.5C 767.5,15.5 767.5,13.5 767.5,11.5C 771.5,11.5 775.5,11.5 779.5,11.5C 779.5,7.5 779.5,3.5 779.5,-0.5 Z"/></g>
<g><path style="opacity:1" fill="#fefffe" d="M 815.5,-0.5 C 819.5,-0.5 823.5,-0.5 827.5,-0.5C 827.5,3.5 827.5,7.5 827.5,11.5C 823.5,11.5 819.5,11.5 815.5,11.5C 815.5,7.5 815.5,3.5 815.5,-0.5 Z"/></g>
<g><path style="opacity:1" fill="#fefffe" d="M 887.5,-0.5 C 891.5,-0.5 895.5,-0.5 899.5,-0.5C 899.5,3.5 899.5,7.5 899.5,11.5C 895.5,11.5 891.5,11.5 887.5,11.5C 887.5,7.5 887.5,3.5 887.5,-0.5 Z"/></g>
<g><path style="opacity:1" fill="#fcfcfc" d="M 911.5,-0.5 C 915.5,-0.5 919.5,-0.5 923.5,-0.5C 923.5,7.5 923.5,15.5 923.5,23.5C 931.5,23.5 939.5,23.5 947.5,23.5C 947.5,27.5 947.5,31.5 947.5,35.5C 951.5,35.5 955.5,35.5 959.5,35.5C 959.5,33.1667 959.5,30.8333 959.5,28.5C 957.833,28.5 956.167,28.5 954.5,28.5C 954.5,24.1667 954.5,19.8333 954.5,15.5C 961.5,15.5 968.5,15.5 975.5,15.5C 975.5,10.1667 975.5,4.83333 975.5,-0.5C 976.833,-0.5 978.167,-0.5 979.5,-0.5C 979.5,12.8333 979.5,26.1667 979.5,39.5C 981.5,39.5 983.5,39.5 985.5,39.5C 985.5,29.8333 985.5,20.1667 985.5,10.5C 987.167,10.5 988.833,10.5 990.5,10.5C 990.173,20.3478 990.506,30.0144 991.5,39.5C 993.167,39.5 994.833,39.5 996.5,39.5C 997.493,31.0161 997.826,22.3494 997.5,13.5C 999.167,13.5 1000.83,13.5 1002.5,13.5C 1003.5,25.3217 1003.83,37.3217 1003.5,49.5C 988.833,49.5 974.167,49.5 959.5,49.5C 956.316,47.5864 952.649,46.9197 948.5,47.5C 948.5,44.8333 948.5,42.1667 948.5,39.5C 944.167,39.5 939.833,39.5 935.5,39.5C 935.5,38.1667 935.5,36.8333 935.5,35.5C 927.5,35.5 919.5,35.5 911.5,35.5C 911.5,40.1667 911.5,44.8333 911.5,49.5C 899.5,49.5 887.5,49.5 875.5,49.5C 875.5,44.8333 875.5,40.1667 875.5,35.5C 883.5,35.5 891.5,35.5 899.5,35.5C 899.5,31.5 899.5,27.5 899.5,23.5C 903.5,23.5 907.5,23.5 911.5,23.5C 911.5,15.5 911.5,7.5 911.5,-0.5 Z"/></g>
<g><path style="opacity:1" fill="#000000" d="M 923.5,-0.5 C 927.5,-0.5 931.5,-0.5 935.5,-0.5C 935.5,3.5 935.5,7.5 935.5,11.5C 937.5,11.5 939.5,11.5 941.5,11.5C 941.5,7.5 941.5,3.5 941.5,-0.5C 952.5,-0.5 963.5,-0.5 974.5,-0.5C 974.5,4.5 974.5,9.5 974.5,14.5C 967.5,14.5 960.5,14.5 953.5,14.5C 953.181,19.3633 953.514,24.03 954.5,28.5C 956.167,28.5 957.833,28.5 959.5,28.5C 959.5,30.8333 959.5,33.1667 959.5,35.5C 955.5,35.5 951.5,35.5 947.5,35.5C 947.5,31.5 947.5,27.5 947.5,23.5C 939.5,23.5 931.5,23.5 923.5,23.5C 923.5,15.5 923.5,7.5 923.5,-0.5 Z"/></g>
<g><path style="opacity:1" fill="#f2f2f2" d="M 935.5,-0.5 C 937.5,-0.5 939.5,-0.5 941.5,-0.5C 941.5,3.5 941.5,7.5 941.5,11.5C 939.5,11.5 937.5,11.5 935.5,11.5C 935.5,7.5 935.5,3.5 935.5,-0.5 Z"/></g>
<g><path style="opacity:1" fill="#060606" d="M 979.5,-0.5 C 994.833,-0.5 1010.17,-0.5 1025.5,-0.5C 1025.5,16.1667 1025.5,32.8333 1025.5,49.5C 1018.17,49.5 1010.83,49.5 1003.5,49.5C 1003.83,37.3217 1003.5,25.3217 1002.5,13.5C 1000.77,12.7934 999.103,11.7934 997.5,10.5C 996.502,20.1437 996.168,29.8104 996.5,39.5C 994.833,39.5 993.167,39.5 991.5,39.5C 991.5,29.5 991.5,19.5 991.5,9.5C 989.265,9.20528 987.265,9.53862 985.5,10.5C 985.5,20.1667 985.5,29.8333 985.5,39.5C 983.5,39.5 981.5,39.5 979.5,39.5C 979.5,26.1667 979.5,12.8333 979.5,-0.5 Z"/></g>
<g><path style="opacity:1" fill="#fdfdfd" d="M 1025.5,-0.5 C 1027.5,-0.5 1029.5,-0.5 1031.5,-0.5C 1031.5,2.83333 1031.5,6.16667 1031.5,9.5C 1039.54,9.7916 1047.54,10.4583 1055.5,11.5C 1055.5,15.5 1055.5,19.5 1055.5,23.5C 1052.17,23.5 1048.83,23.5 1045.5,23.5C 1045.5,24.8333 1045.5,26.1667 1045.5,27.5C 1040.83,27.5 1036.17,27.5 1031.5,27.5C 1031.5,34.1667 1031.5,40.8333 1031.5,47.5C 1035.97,46.9106 1039.97,47.5772 1043.5,49.5C 1037.5,49.5 1031.5,49.5 1025.5,49.5C 1025.5,32.8333 1025.5,16.1667 1025.5,-0.5 Z"/></g>
<g><path style="opacity:1" fill="#000000" d="M 1031.5,-0.5 C 1043.5,-0.5 1055.5,-0.5 1067.5,-0.5C 1067.5,3.5 1067.5,7.5 1067.5,11.5C 1071.5,11.5 1075.5,11.5 1079.5,11.5C 1079.5,7.5 1079.5,3.5 1079.5,-0.5C 1103.5,-0.5 1127.5,-0.5 1151.5,-0.5C 1151.5,7.5 1151.5,15.5 1151.5,23.5C 1155.5,23.5 1159.5,23.5 1163.5,23.5C 1163.5,27.5 1163.5,31.5 1163.5,35.5C 1159.5,35.5 1155.5,35.5 1151.5,35.5C 1151.5,39.5 1151.5,43.5 1151.5,47.5C 1147.03,46.9106 1143.03,47.5772 1139.5,49.5C 1135.5,49.5 1131.5,49.5 1127.5,49.5C 1127.5,44.8333 1127.5,40.1667 1127.5,35.5C 1107.5,35.5 1087.5,35.5 1067.5,35.5C 1067.5,31.5 1067.5,27.5 1067.5,23.5C 1063.5,23.5 1059.5,23.5 1055.5,23.5C 1055.5,19.5 1055.5,15.5 1055.5,11.5C 1047.54,10.4583 1039.54,9.7916 1031.5,9.5C 1031.5,6.16667 1031.5,2.83333 1031.5,-0.5 Z"/></g>
<g><path style="opacity:1" fill="#fefffe" d="M 1067.5,-0.5 C 1071.5,-0.5 1075.5,-0.5 1079.5,-0.5C 1079.5,3.5 1079.5,7.5 1079.5,11.5C 1075.5,11.5 1071.5,11.5 1067.5,11.5C 1067.5,7.5 1067.5,3.5 1067.5,-0.5 Z"/></g>
<g><path style="opacity:1" fill="#fefffe" d="M 1151.5,-0.5 C 1155.5,-0.5 1159.5,-0.5 1163.5,-0.5C 1163.5,3.5 1163.5,7.5 1163.5,11.5C 1167.5,11.5 1171.5,11.5 1175.5,11.5C 1175.5,19.5 1175.5,27.5 1175.5,35.5C 1179.5,35.5 1183.5,35.5 1187.5,35.5C 1187.5,39.5 1187.5,43.5 1187.5,47.5C 1195.5,47.5 1203.5,47.5 1211.5,47.5C 1211.5,43.5 1211.5,39.5 1211.5,35.5C 1215.5,35.5 1219.5,35.5 1223.5,35.5C 1223.5,39.5 1223.5,43.5 1223.5,47.5C 1225.78,47.0773 1227.45,47.744 1228.5,49.5C 1210.83,49.5 1193.17,49.5 1175.5,49.5C 1167.9,47.5332 1159.9,46.8665 1151.5,47.5C 1151.5,43.5 1151.5,39.5 1151.5,35.5C 1155.5,35.5 1159.5,35.5 1163.5,35.5C 1163.5,31.5 1163.5,27.5 1163.5,23.5C 1159.5,23.5 1155.5,23.5 1151.5,23.5C 1151.5,15.5 1151.5,7.5 1151.5,-0.5 Z"/></g>
<g><path style="opacity:1" fill="#000000" d="M 1163.5,-0.5 C 1179.5,-0.5 1195.5,-0.5 1211.5,-0.5C 1211.5,7.5 1211.5,15.5 1211.5,23.5C 1203.5,23.5 1195.5,23.5 1187.5,23.5C 1187.5,27.5 1187.5,31.5 1187.5,35.5C 1183.5,35.5 1179.5,35.5 1175.5,35.5C 1175.5,27.5 1175.5,19.5 1175.5,11.5C 1171.5,11.5 1167.5,11.5 1163.5,11.5C 1163.5,7.5 1163.5,3.5 1163.5,-0.5 Z"/></g>
<g><path style="opacity:1" fill="#fefffe" d="M 1211.5,-0.5 C 1227.5,-0.5 1243.5,-0.5 1259.5,-0.5C 1259.5,1.16667 1259.5,2.83333 1259.5,4.5C 1249.17,4.5 1238.83,4.5 1228.5,4.5C 1228.5,14.8333 1228.5,25.1667 1228.5,35.5C 1226.83,35.5 1225.17,35.5 1223.5,35.5C 1223.5,31.5 1223.5,27.5 1223.5,23.5C 1219.5,23.5 1215.5,23.5 1211.5,23.5C 1211.5,15.5 1211.5,7.5 1211.5,-0.5 Z"/></g>
<g><path style="opacity:1" fill="#000000" d="M 1259.5,-0.5 C 1263.5,-0.5 1267.5,-0.5 1271.5,-0.5C 1271.5,1.16667 1271.5,2.83333 1271.5,4.5C 1273.17,4.5 1274.83,4.5 1276.5,4.5C 1276.5,6.83333 1276.5,9.16667 1276.5,11.5C 1278.83,11.5 1281.17,11.5 1283.5,11.5C 1283.5,23.5 1283.5,35.5 1283.5,47.5C 1280.61,46.9898 1278.28,47.6565 1276.5,49.5C 1260.5,49.5 1244.5,49.5 1228.5,49.5C 1227.45,47.744 1225.78,47.0773 1223.5,47.5C 1223.5,43.5 1223.5,39.5 1223.5,35.5C 1225.17,35.5 1226.83,35.5 1228.5,35.5C 1228.5,25.1667 1228.5,14.8333 1228.5,4.5C 1238.83,4.5 1249.17,4.5 1259.5,4.5C 1259.5,2.83333 1259.5,1.16667 1259.5,-0.5 Z"/></g>
<g><path style="opacity:1" fill="#fefffe" d="M 1271.5,-0.5 C 1279.5,-0.5 1287.5,-0.5 1295.5,-0.5C 1295.5,11.5 1295.5,23.5 1295.5,35.5C 1299.5,35.5 1303.5,35.5 1307.5,35.5C 1307.5,39.5 1307.5,43.5 1307.5,47.5C 1299.5,47.5 1291.5,47.5 1283.5,47.5C 1283.5,35.5 1283.5,23.5 1283.5,11.5C 1281.17,11.5 1278.83,11.5 1276.5,11.5C 1276.5,9.16667 1276.5,6.83333 1276.5,4.5C 1274.83,4.5 1273.17,4.5 1271.5,4.5C 1271.5,2.83333 1271.5,1.16667 1271.5,-0.5 Z"/></g>
<g><path style="opacity:1" fill="#000000" d="M 1295.5,-0.5 C 1315.5,-0.5 1335.5,-0.5 1355.5,-0.5C 1355.5,3.5 1355.5,7.5 1355.5,11.5C 1351.5,11.5 1347.5,11.5 1343.5,11.5C 1343.5,15.5 1343.5,19.5 1343.5,23.5C 1339.5,23.5 1335.5,23.5 1331.5,23.5C 1331.5,19.5 1331.5,15.5 1331.5,11.5C 1327.5,11.5 1323.5,11.5 1319.5,11.5C 1319.5,24.1667 1319.5,36.8333 1319.5,49.5C 1307.5,49.5 1295.5,49.5 1283.5,49.5C 1283.5,48.8333 1283.5,48.1667 1283.5,47.5C 1291.5,47.5 1299.5,47.5 1307.5,47.5C 1307.5,43.5 1307.5,39.5 1307.5,35.5C 1303.5,35.5 1299.5,35.5 1295.5,35.5C 1295.5,23.5 1295.5,11.5 1295.5,-0.5 Z"/></g>
<g><path style="opacity:1" fill="#fefffe" d="M 1355.5,-0.5 C 1371.5,-0.5 1387.5,-0.5 1403.5,-0.5C 1403.5,3.5 1403.5,7.5 1403.5,11.5C 1407.5,11.5 1411.5,11.5 1415.5,11.5C 1415.5,7.5 1415.5,3.5 1415.5,-0.5C 1427.5,-0.5 1439.5,-0.5 1451.5,-0.5C 1451.5,11.5 1451.5,23.5 1451.5,35.5C 1447.5,35.5 1443.5,35.5 1439.5,35.5C 1439.5,31.5 1439.5,27.5 1439.5,23.5C 1427.5,23.5 1415.5,23.5 1403.5,23.5C 1403.5,27.5 1403.5,31.5 1403.5,35.5C 1399.5,35.5 1395.5,35.5 1391.5,35.5C 1391.5,27.5 1391.5,19.5 1391.5,11.5C 1387.5,11.5 1383.5,11.5 1379.5,11.5C 1379.5,15.5 1379.5,19.5 1379.5,23.5C 1375.5,23.5 1371.5,23.5 1367.5,23.5C 1367.5,31.5 1367.5,39.5 1367.5,47.5C 1359.1,46.8665 1351.1,47.5332 1343.5,49.5C 1335.5,49.5 1327.5,49.5 1319.5,49.5C 1319.5,36.8333 1319.5,24.1667 1319.5,11.5C 1323.5,11.5 1327.5,11.5 1331.5,11.5C 1331.5,15.5 1331.5,19.5 1331.5,23.5C 1335.5,23.5 1339.5,23.5 1343.5,23.5C 1343.5,19.5 1343.5,15.5 1343.5,11.5C 1347.5,11.5 1351.5,11.5 1355.5,11.5C 1355.5,7.5 1355.5,3.5 1355.5,-0.5 Z"/></g>
<g><path style="opacity:1" fill="#000000" d="M 1403.5,-0.5 C 1407.5,-0.5 1411.5,-0.5 1415.5,-0.5C 1415.5,3.5 1415.5,7.5 1415.5,11.5C 1411.5,11.5 1407.5,11.5 1403.5,11.5C 1403.5,7.5 1403.5,3.5 1403.5,-0.5 Z"/></g>
<g><path style="opacity:1" fill="#000000" d="M 1451.5,-0.5 C 1455.5,-0.5 1459.5,-0.5 1463.5,-0.5C 1463.5,7.5 1463.5,15.5 1463.5,23.5C 1467.5,23.5 1471.5,23.5 1475.5,23.5C 1475.5,27.5 1475.5,31.5 1475.5,35.5C 1479.5,35.5 1483.5,35.5 1487.5,35.5C 1487.5,31.5 1487.5,27.5 1487.5,23.5C 1491.5,23.5 1495.5,23.5 1499.5,23.5C 1499.5,27.5 1499.5,31.5 1499.5,35.5C 1503.5,35.5 1507.5,35.5 1511.5,35.5C 1511.5,39.5 1511.5,43.5 1511.5,47.5C 1515.5,47.5 1519.5,47.5 1523.5,47.5C 1523.5,39.5 1523.5,31.5 1523.5,23.5C 1519.5,23.5 1515.5,23.5 1511.5,23.5C 1511.5,19.5 1511.5,15.5 1511.5,11.5C 1515.5,11.5 1519.5,11.5 1523.5,11.5C 1523.5,7.5 1523.5,3.5 1523.5,-0.5C 1531.5,-0.5 1539.5,-0.5 1547.5,-0.5C 1547.5,3.5 1547.5,7.5 1547.5,11.5C 1559.5,11.5 1571.5,11.5 1583.5,11.5C 1583.5,15.5 1583.5,19.5 1583.5,23.5C 1587.5,23.5 1591.5,23.5 1595.5,23.5C 1595.5,27.5 1595.5,31.5 1595.5,35.5C 1599.5,35.5 1603.5,35.5 1607.5,35.5C 1607.5,40.1667 1607.5,44.8333 1607.5,49.5C 1603.5,49.5 1599.5,49.5 1595.5,49.5C 1591.89,48.176 1587.89,47.5093 1583.5,47.5C 1579.11,47.5093 1575.11,48.176 1571.5,49.5C 1567.5,49.5 1563.5,49.5 1559.5,49.5C 1559.5,44.8333 1559.5,40.1667 1559.5,35.5C 1555.5,35.5 1551.5,35.5 1547.5,35.5C 1547.5,40.1667 1547.5,44.8333 1547.5,49.5C 1527.5,49.5 1507.5,49.5 1487.5,49.5C 1485.95,48.2057 1483.95,47.5391 1481.5,47.5C 1479.05,47.5391 1477.05,48.2057 1475.5,49.5C 1459.5,49.5 1443.5,49.5 1427.5,49.5C 1427.5,48.8333 1427.5,48.1667 1427.5,47.5C 1431.5,47.5 1435.5,47.5 1439.5,47.5C 1439.5,43.5 1439.5,39.5 1439.5,35.5C 1443.5,35.5 1447.5,35.5 1451.5,35.5C 1451.5,23.5 1451.5,11.5 1451.5,-0.5 Z"/></g>
<g><path style="opacity:1" fill="#fefffe" d="M 1463.5,-0.5 C 1467.5,-0.5 1471.5,-0.5 1475.5,-0.5C 1475.5,3.5 1475.5,7.5 1475.5,11.5C 1483.5,11.5 1491.5,11.5 1499.5,11.5C 1499.5,7.5 1499.5,3.5 1499.5,-0.5C 1507.5,-0.5 1515.5,-0.5 1523.5,-0.5C 1523.5,3.5 1523.5,7.5 1523.5,11.5C 1519.5,11.5 1515.5,11.5 1511.5,11.5C 1511.5,15.5 1511.5,19.5 1511.5,23.5C 1515.5,23.5 1519.5,23.5 1523.5,23.5C 1523.5,31.5 1523.5,39.5 1523.5,47.5C 1519.5,47.5 1515.5,47.5 1511.5,47.5C 1511.5,43.5 1511.5,39.5 1511.5,35.5C 1507.5,35.5 1503.5,35.5 1499.5,35.5C 1499.5,31.5 1499.5,27.5 1499.5,23.5C 1495.5,23.5 1491.5,23.5 1487.5,23.5C 1487.5,27.5 1487.5,31.5 1487.5,35.5C 1483.5,35.5 1479.5,35.5 1475.5,35.5C 1475.5,31.5 1475.5,27.5 1475.5,23.5C 1471.5,23.5 1467.5,23.5 1463.5,23.5C 1463.5,15.5 1463.5,7.5 1463.5,-0.5 Z"/></g>
<g><path style="opacity:1" fill="#000000" d="M 1475.5,-0.5 C 1483.5,-0.5 1491.5,-0.5 1499.5,-0.5C 1499.5,3.5 1499.5,7.5 1499.5,11.5C 1491.5,11.5 1483.5,11.5 1475.5,11.5C 1475.5,7.5 1475.5,3.5 1475.5,-0.5 Z"/></g>
<g><path style="opacity:1" fill="#fefffe" d="M 1547.5,-0.5 C 1575.5,-0.5 1603.5,-0.5 1631.5,-0.5C 1631.5,3.5 1631.5,7.5 1631.5,11.5C 1627.5,11.5 1623.5,11.5 1619.5,11.5C 1619.5,24.1667 1619.5,36.8333 1619.5,49.5C 1615.5,49.5 1611.5,49.5 1607.5,49.5C 1607.5,44.8333 1607.5,40.1667 1607.5,35.5C 1603.5,35.5 1599.5,35.5 1595.5,35.5C 1595.5,31.5 1595.5,27.5 1595.5,23.5C 1591.5,23.5 1587.5,23.5 1583.5,23.5C 1583.5,19.5 1583.5,15.5 1583.5,11.5C 1571.5,11.5 1559.5,11.5 1547.5,11.5C 1547.5,7.5 1547.5,3.5 1547.5,-0.5 Z"/></g>
<g><path style="opacity:1" fill="#000000" d="M 1631.5,-0.5 C 1635.5,-0.5 1639.5,-0.5 1643.5,-0.5C 1643.5,3.5 1643.5,7.5 1643.5,11.5C 1639.5,11.5 1635.5,11.5 1631.5,11.5C 1631.5,7.5 1631.5,3.5 1631.5,-0.5 Z"/></g>
<g><path style="opacity:1" fill="#fefffe" d="M 1643.5,-0.5 C 1651.5,-0.5 1659.5,-0.5 1667.5,-0.5C 1667.5,3.5 1667.5,7.5 1667.5,11.5C 1675.5,11.5 1683.5,11.5 1691.5,11.5C 1691.5,19.5 1691.5,27.5 1691.5,35.5C 1695.17,35.5 1698.83,35.5 1702.5,35.5C 1703.39,23.5261 1703.72,11.5261 1703.5,-0.5C 1707.5,-0.5 1711.5,-0.5 1715.5,-0.5C 1715.5,7.5 1715.5,15.5 1715.5,23.5C 1719.5,23.5 1723.5,23.5 1727.5,23.5C 1727.5,25.8333 1727.5,28.1667 1727.5,30.5C 1739.5,30.5 1751.5,30.5 1763.5,30.5C 1763.5,24.1667 1763.5,17.8333 1763.5,11.5C 1767.5,11.5 1771.5,11.5 1775.5,11.5C 1775.5,7.5 1775.5,3.5 1775.5,-0.5C 1783.5,-0.5 1791.5,-0.5 1799.5,-0.5C 1799.5,3.5 1799.5,7.5 1799.5,11.5C 1795.5,11.5 1791.5,11.5 1787.5,11.5C 1787.5,15.5 1787.5,19.5 1787.5,23.5C 1783.5,23.5 1779.5,23.5 1775.5,23.5C 1775.5,25.8333 1775.5,28.1667 1775.5,30.5C 1791.5,30.5 1807.5,30.5 1823.5,30.5C 1823.5,28.1667 1823.5,25.8333 1823.5,23.5C 1827.5,23.5 1831.5,23.5 1835.5,23.5C 1835.5,19.5 1835.5,15.5 1835.5,11.5C 1843.5,11.5 1851.5,11.5 1859.5,11.5C 1859.5,9.83333 1859.5,8.16667 1859.5,6.5C 1867.5,6.5 1875.5,6.5 1883.5,6.5C 1883.5,8.16667 1883.5,9.83333 1883.5,11.5C 1887.5,11.5 1891.5,11.5 1895.5,11.5C 1895.5,15.5 1895.5,19.5 1895.5,23.5C 1887.5,23.5 1879.5,23.5 1871.5,23.5C 1871.5,27.5 1871.5,31.5 1871.5,35.5C 1867.5,35.5 1863.5,35.5 1859.5,35.5C 1859.5,39.5 1859.5,43.5 1859.5,47.5C 1855.5,47.5 1851.5,47.5 1847.5,47.5C 1847.5,48.1667 1847.5,48.8333 1847.5,49.5C 1795.5,49.5 1743.5,49.5 1691.5,49.5C 1683.9,47.5332 1675.9,46.8665 1667.5,47.5C 1667.5,43.5 1667.5,39.5 1667.5,35.5C 1659.5,35.5 1651.5,35.5 1643.5,35.5C 1643.5,31.5 1643.5,27.5 1643.5,23.5C 1647.5,23.5 1651.5,23.5 1655.5,23.5C 1655.5,19.5 1655.5,15.5 1655.5,11.5C 1651.5,11.5 1647.5,11.5 1643.5,11.5C 1643.5,7.5 1643.5,3.5 1643.5,-0.5 Z"/></g>
<g><path style="opacity:1" fill="#000000" d="M 1667.5,-0.5 C 1679.5,-0.5 1691.5,-0.5 1703.5,-0.5C 1703.72,11.5261 1703.39,23.5261 1702.5,35.5C 1698.83,35.5 1695.17,35.5 1691.5,35.5C 1691.5,27.5 1691.5,19.5 1691.5,11.5C 1683.5,11.5 1675.5,11.5 1667.5,11.5C 1667.5,7.5 1667.5,3.5 1667.5,-0.5 Z"/></g>
<g><path style="opacity:1" fill="#000000" d="M 1715.5,-0.5 C 1719.5,-0.5 1723.5,-0.5 1727.5,-0.5C 1727.5,3.5 1727.5,7.5 1727.5,11.5C 1739.5,11.5 1751.5,11.5 1763.5,11.5C 1763.5,17.8333 1763.5,24.1667 1763.5,30.5C 1751.5,30.5 1739.5,30.5 1727.5,30.5C 1727.5,28.1667 1727.5,25.8333 1727.5,23.5C 1723.5,23.5 1719.5,23.5 1715.5,23.5C 1715.5,15.5 1715.5,7.5 1715.5,-0.5 Z"/></g>
<g><path style="opacity:1" fill="#fefffe" d="M 1727.5,-0.5 C 1739.5,-0.5 1751.5,-0.5 1763.5,-0.5C 1763.5,3.5 1763.5,7.5 1763.5,11.5C 1751.5,11.5 1739.5,11.5 1727.5,11.5C 1727.5,7.5 1727.5,3.5 1727.5,-0.5 Z"/></g>
<g><path style="opacity:1" fill="#000000" d="M 1763.5,-0.5 C 1767.5,-0.5 1771.5,-0.5 1775.5,-0.5C 1775.5,3.5 1775.5,7.5 1775.5,11.5C 1771.5,11.5 1767.5,11.5 1763.5,11.5C 1763.5,7.5 1763.5,3.5 1763.5,-0.5 Z"/></g>
<g><path style="opacity:1" fill="#000000" d="M 1799.5,-0.5 C 1843.5,-0.5 1887.5,-0.5 1931.5,-0.5C 1931.5,3.5 1931.5,7.5 1931.5,11.5C 1927.5,11.5 1923.5,11.5 1919.5,11.5C 1919.5,19.5 1919.5,27.5 1919.5,35.5C 1923.5,35.5 1927.5,35.5 1931.5,35.5C 1931.5,39.5 1931.5,43.5 1931.5,47.5C 1923.1,46.8665 1915.1,47.5332 1907.5,49.5C 1903.5,49.5 1899.5,49.5 1895.5,49.5C 1893.95,48.2057 1891.95,47.5391 1889.5,47.5C 1887.05,47.5391 1885.05,48.2057 1883.5,49.5C 1871.5,49.5 1859.5,49.5 1847.5,49.5C 1847.5,48.8333 1847.5,48.1667 1847.5,47.5C 1851.5,47.5 1855.5,47.5 1859.5,47.5C 1859.5,43.5 1859.5,39.5 1859.5,35.5C 1863.5,35.5 1867.5,35.5 1871.5,35.5C 1871.5,31.5 1871.5,27.5 1871.5,23.5C 1879.5,23.5 1887.5,23.5 1895.5,23.5C 1895.5,19.5 1895.5,15.5 1895.5,11.5C 1891.5,11.5 1887.5,11.5 1883.5,11.5C 1883.5,9.83333 1883.5,8.16667 1883.5,6.5C 1875.5,6.5 1867.5,6.5 1859.5,6.5C 1859.5,8.16667 1859.5,9.83333 1859.5,11.5C 1851.5,11.5 1843.5,11.5 1835.5,11.5C 1835.5,15.5 1835.5,19.5 1835.5,23.5C 1831.5,23.5 1827.5,23.5 1823.5,23.5C 1823.5,19.5 1823.5,15.5 1823.5,11.5C 1815.5,11.5 1807.5,11.5 1799.5,11.5C 1799.5,7.5 1799.5,3.5 1799.5,-0.5 Z"/></g>
<g><path style="opacity:1" fill="#fefffe" d="M 1931.5,-0.5 C 1939.5,-0.5 1947.5,-0.5 1955.5,-0.5C 1955.5,3.5 1955.5,7.5 1955.5,11.5C 1947.5,11.5 1939.5,11.5 1931.5,11.5C 1931.5,7.5 1931.5,3.5 1931.5,-0.5 Z"/></g>
<g><path style="opacity:1" fill="#030303" d="M 1955.5,-0.5 C 1958.5,-0.5 1961.5,-0.5 1964.5,-0.5C 1964.5,3.83333 1964.5,8.16667 1964.5,12.5C 1971.5,12.5 1978.5,12.5 1985.5,12.5C 1985.5,22.5 1985.5,32.5 1985.5,42.5C 1976.17,42.5 1966.83,42.5 1957.5,42.5C 1957.5,36.1667 1957.5,29.8333 1957.5,23.5C 1952.83,23.5 1948.17,23.5 1943.5,23.5C 1943.5,27.5 1943.5,31.5 1943.5,35.5C 1939.5,35.5 1935.5,35.5 1931.5,35.5C 1931.5,27.5 1931.5,19.5 1931.5,11.5C 1939.5,11.5 1947.5,11.5 1955.5,11.5C 1955.5,7.5 1955.5,3.5 1955.5,-0.5 Z"/></g>
<g><path style="opacity:1" fill="#fcfcfc" d="M 1964.5,-0.5 C 1976.17,-0.5 1987.83,-0.5 1999.5,-0.5C 1999.5,16.1667 1999.5,32.8333 1999.5,49.5C 1987.83,49.5 1976.17,49.5 1964.5,49.5C 1953.88,47.523 1942.88,46.8564 1931.5,47.5C 1931.5,43.5 1931.5,39.5 1931.5,35.5C 1935.5,35.5 1939.5,35.5 1943.5,35.5C 1943.5,31.5 1943.5,27.5 1943.5,23.5C 1948.17,23.5 1952.83,23.5 1957.5,23.5C 1957.5,29.8333 1957.5,36.1667 1957.5,42.5C 1966.83,42.5 1976.17,42.5 1985.5,42.5C 1985.5,32.5 1985.5,22.5 1985.5,12.5C 1978.5,12.5 1971.5,12.5 1964.5,12.5C 1964.5,8.16667 1964.5,3.83333 1964.5,-0.5 Z"/></g>
<g><path style="opacity:1" fill="#010101" d="M 86.5,49.5 C 69.1667,49.5 51.8333,49.5 34.5,49.5C 34.5,38.8333 34.5,28.1667 34.5,17.5C 44.1667,17.5 53.8333,17.5 63.5,17.5C 63.5,14.5 63.5,11.5 63.5,8.5C 69.1667,8.5 74.8333,8.5 80.5,8.5C 80.5,14.5 80.5,20.5 80.5,26.5C 77.5,26.5 74.5,26.5 71.5,26.5C 71.5,29.1667 71.5,31.8333 71.5,34.5C 76.5,34.5 81.5,34.5 86.5,34.5C 86.5,39.5 86.5,44.5 86.5,49.5 Z"/></g>
<g><path style="opacity:1" fill="#7f7f7f" d="M 469.5,9.5 C 494.5,9.5 519.5,9.5 544.5,9.5C 544.5,13.5 544.5,17.5 544.5,21.5C 539.167,21.5 533.833,21.5 528.5,21.5C 533.305,20.5128 538.305,20.1795 543.5,20.5C 543.5,17.1667 543.5,13.8333 543.5,10.5C 518.661,10.831 493.994,10.4977 469.5,9.5 Z"/></g>
<g><path style="opacity:1" fill="#b4b4b4" d="M 985.5,10.5 C 987.265,9.53862 989.265,9.20528 991.5,9.5C 991.5,19.5 991.5,29.5 991.5,39.5C 990.506,30.0144 990.173,20.3478 990.5,10.5C 988.833,10.5 987.167,10.5 985.5,10.5 Z"/></g>
<g><path style="opacity:1" fill="#3c3c3c" d="M 1002.5,13.5 C 1000.83,13.5 999.167,13.5 997.5,13.5C 997.826,22.3494 997.493,31.0161 996.5,39.5C 996.168,29.8104 996.502,20.1437 997.5,10.5C 999.103,11.7934 1000.77,12.7934 1002.5,13.5 Z"/></g>
<g><path style="opacity:1" fill="#fcfcfc" d="M 179.5,11.5 C 179.5,15.5 179.5,19.5 179.5,23.5C 187.5,23.5 195.5,23.5 203.5,23.5C 203.5,19.5 203.5,15.5 203.5,11.5C 211.5,11.5 219.5,11.5 227.5,11.5C 227.5,18.8333 227.5,26.1667 227.5,33.5C 221.167,33.5 214.833,33.5 208.5,33.5C 208.5,38.8333 208.5,44.1667 208.5,49.5C 202.167,49.5 195.833,49.5 189.5,49.5C 189.5,44.8333 189.5,40.1667 189.5,35.5C 186.5,35.5 183.5,35.5 180.5,35.5C 180.5,32.1667 180.5,28.8333 180.5,25.5C 171.766,26.135 163.433,25.4684 155.5,23.5C 159.5,23.5 163.5,23.5 167.5,23.5C 167.5,19.5 167.5,15.5 167.5,11.5C 171.5,11.5 175.5,11.5 179.5,11.5 Z"/></g>
<g><path style="opacity:1" fill="#000000" d="M 179.5,11.5 C 187.5,11.5 195.5,11.5 203.5,11.5C 203.5,15.5 203.5,19.5 203.5,23.5C 195.5,23.5 187.5,23.5 179.5,23.5C 179.5,19.5 179.5,15.5 179.5,11.5 Z"/></g>
<g><path style="opacity:1" fill="#010101" d="M 227.5,11.5 C 235.5,11.5 243.5,11.5 251.5,11.5C 251.5,15.5 251.5,19.5 251.5,23.5C 259.5,23.5 267.5,23.5 275.5,23.5C 275.5,27.5 275.5,31.5 275.5,35.5C 271.5,35.5 267.5,35.5 263.5,35.5C 263.5,37.1667 263.5,38.8333 263.5,40.5C 259.5,40.5 255.5,40.5 251.5,40.5C 251.5,38.8333 251.5,37.1667 251.5,35.5C 247.5,35.5 243.5,35.5 239.5,35.5C 239.5,39.5 239.5,43.5 239.5,47.5C 243.649,46.9197 247.316,47.5864 250.5,49.5C 236.5,49.5 222.5,49.5 208.5,49.5C 208.5,44.1667 208.5,38.8333 208.5,33.5C 214.833,33.5 221.167,33.5 227.5,33.5C 227.5,26.1667 227.5,18.8333 227.5,11.5 Z"/></g>
<g><path style="opacity:1" fill="#fefffe" d="M 431.5,11.5 C 431.5,15.5 431.5,19.5 431.5,23.5C 427.5,23.5 423.5,23.5 419.5,23.5C 419.5,19.5 419.5,15.5 419.5,11.5C 423.5,11.5 427.5,11.5 431.5,11.5 Z"/></g>
<g><path style="opacity:1" fill="#000000" d="M 431.5,11.5 C 434.167,11.5 436.833,11.5 439.5,11.5C 439.5,15.5 439.5,19.5 439.5,23.5C 436.833,23.5 434.167,23.5 431.5,23.5C 431.5,19.5 431.5,15.5 431.5,11.5 Z"/></g>
<g><path style="opacity:1" fill="#000000" d="M 659.5,23.5 C 655.5,23.5 651.5,23.5 647.5,23.5C 647.5,19.5 647.5,15.5 647.5,11.5C 651.5,11.5 655.5,11.5 659.5,11.5C 659.5,15.5 659.5,19.5 659.5,23.5 Z"/></g>
<g><path style="opacity:1" fill="#fefffe" d="M 815.5,11.5 C 815.5,15.5 815.5,19.5 815.5,23.5C 811.5,23.5 807.5,23.5 803.5,23.5C 803.5,19.5 803.5,15.5 803.5,11.5C 807.5,11.5 811.5,11.5 815.5,11.5 Z"/></g>
<g><path style="opacity:1" fill="#fefffe" d="M 863.5,23.5 C 855.5,23.5 847.5,23.5 839.5,23.5C 839.5,19.5 839.5,15.5 839.5,11.5C 847.5,11.5 855.5,11.5 863.5,11.5C 863.5,15.5 863.5,19.5 863.5,23.5 Z"/></g>
<g><path style="opacity:1" fill="#fefffe" d="M 1079.5,11.5 C 1083.5,11.5 1087.5,11.5 1091.5,11.5C 1091.5,15.5 1091.5,19.5 1091.5,23.5C 1087.5,23.5 1083.5,23.5 1079.5,23.5C 1079.5,19.5 1079.5,15.5 1079.5,11.5 Z"/></g>
<g><path style="opacity:1" fill="#fefffe" d="M 1103.5,11.5 C 1111.5,11.5 1119.5,11.5 1127.5,11.5C 1127.5,15.5 1127.5,19.5 1127.5,23.5C 1119.5,23.5 1111.5,23.5 1103.5,23.5C 1103.5,19.5 1103.5,15.5 1103.5,11.5 Z"/></g>
<g><path style="opacity:1" fill="#000000" d="M 1439.5,35.5 C 1435.5,35.5 1431.5,35.5 1427.5,35.5C 1427.5,39.5 1427.5,43.5 1427.5,47.5C 1415.12,46.8542 1403.12,47.5209 1391.5,49.5C 1387.5,49.5 1383.5,49.5 1379.5,49.5C 1375.97,47.5772 1371.97,46.9106 1367.5,47.5C 1367.5,39.5 1367.5,31.5 1367.5,23.5C 1371.5,23.5 1375.5,23.5 1379.5,23.5C 1379.5,19.5 1379.5,15.5 1379.5,11.5C 1383.5,11.5 1387.5,11.5 1391.5,11.5C 1391.5,19.5 1391.5,27.5 1391.5,35.5C 1395.5,35.5 1399.5,35.5 1403.5,35.5C 1403.5,31.5 1403.5,27.5 1403.5,23.5C 1415.5,23.5 1427.5,23.5 1439.5,23.5C 1439.5,27.5 1439.5,31.5 1439.5,35.5 Z"/></g>
<g><path style="opacity:1" fill="#000000" d="M 1631.5,11.5 C 1631.5,15.5 1631.5,19.5 1631.5,23.5C 1635.5,23.5 1639.5,23.5 1643.5,23.5C 1643.5,27.5 1643.5,31.5 1643.5,35.5C 1651.5,35.5 1659.5,35.5 1667.5,35.5C 1667.5,39.5 1667.5,43.5 1667.5,47.5C 1659.1,46.8665 1651.1,47.5332 1643.5,49.5C 1635.5,49.5 1627.5,49.5 1619.5,49.5C 1619.5,36.8333 1619.5,24.1667 1619.5,11.5C 1623.5,11.5 1627.5,11.5 1631.5,11.5 Z"/></g>
<g><path style="opacity:1" fill="#fefffe" d="M 1631.5,11.5 C 1635.5,11.5 1639.5,11.5 1643.5,11.5C 1643.5,15.5 1643.5,19.5 1643.5,23.5C 1639.5,23.5 1635.5,23.5 1631.5,23.5C 1631.5,19.5 1631.5,15.5 1631.5,11.5 Z"/></g>
<g><path style="opacity:1" fill="#000000" d="M 1643.5,11.5 C 1647.5,11.5 1651.5,11.5 1655.5,11.5C 1655.5,15.5 1655.5,19.5 1655.5,23.5C 1651.5,23.5 1647.5,23.5 1643.5,23.5C 1643.5,19.5 1643.5,15.5 1643.5,11.5 Z"/></g>
<g><path style="opacity:1" fill="#000000" d="M 1799.5,11.5 C 1799.5,15.5 1799.5,19.5 1799.5,23.5C 1807.5,23.5 1815.5,23.5 1823.5,23.5C 1823.5,25.8333 1823.5,28.1667 1823.5,30.5C 1807.5,30.5 1791.5,30.5 1775.5,30.5C 1775.5,28.1667 1775.5,25.8333 1775.5,23.5C 1779.5,23.5 1783.5,23.5 1787.5,23.5C 1787.5,19.5 1787.5,15.5 1787.5,11.5C 1791.5,11.5 1795.5,11.5 1799.5,11.5 Z"/></g>
<g><path style="opacity:1" fill="#fefffe" d="M 1799.5,11.5 C 1807.5,11.5 1815.5,11.5 1823.5,11.5C 1823.5,15.5 1823.5,19.5 1823.5,23.5C 1815.5,23.5 1807.5,23.5 1799.5,23.5C 1799.5,19.5 1799.5,15.5 1799.5,11.5 Z"/></g>
<g><path style="opacity:1" fill="#fefffe" d="M 1931.5,11.5 C 1931.5,19.5 1931.5,27.5 1931.5,35.5C 1927.5,35.5 1923.5,35.5 1919.5,35.5C 1919.5,27.5 1919.5,19.5 1919.5,11.5C 1923.5,11.5 1927.5,11.5 1931.5,11.5 Z"/></g>
<g><path style="opacity:1" fill="#000000" d="M 383.5,35.5 C 379.5,35.5 375.5,35.5 371.5,35.5C 371.5,31.5 371.5,27.5 371.5,23.5C 367.5,23.5 363.5,23.5 359.5,23.5C 359.5,19.8333 359.5,16.1667 359.5,12.5C 371.5,12.5 383.5,12.5 395.5,12.5C 395.5,16.1667 395.5,19.8333 395.5,23.5C 391.5,23.5 387.5,23.5 383.5,23.5C 383.5,27.5 383.5,31.5 383.5,35.5 Z"/></g>
<g><path style="opacity:1" fill="#787878" d="M 974.5,-0.5 C 974.833,-0.5 975.167,-0.5 975.5,-0.5C 975.5,4.83333 975.5,10.1667 975.5,15.5C 968.5,15.5 961.5,15.5 954.5,15.5C 954.5,19.8333 954.5,24.1667 954.5,28.5C 953.514,24.03 953.181,19.3633 953.5,14.5C 960.5,14.5 967.5,14.5 974.5,14.5C 974.5,9.5 974.5,4.5 974.5,-0.5 Z"/></g>
<g><path style="opacity:1" fill="#fefffe" d="M 143.5,23.5 C 144.167,31.5 144.833,39.5 145.5,47.5C 136.833,47.5 128.167,47.5 119.5,47.5C 119.5,39.5 119.5,31.5 119.5,23.5C 127.5,23.5 135.5,23.5 143.5,23.5 Z"/></g>
<g><path style="opacity:1" fill="#000000" d="M 203.5,23.5 C 207.5,23.5 211.5,23.5 215.5,23.5C 215.5,26.1667 215.5,28.8333 215.5,31.5C 211.5,31.5 207.5,31.5 203.5,31.5C 203.5,28.8333 203.5,26.1667 203.5,23.5 Z"/></g>
<g><path style="opacity:1" fill="#fbfbfb" d="M 275.5,23.5 C 278.167,23.5 280.833,23.5 283.5,23.5C 283.5,31.5 283.5,39.5 283.5,47.5C 281.821,47.2852 280.821,47.9519 280.5,49.5C 270.5,49.5 260.5,49.5 250.5,49.5C 247.316,47.5864 243.649,46.9197 239.5,47.5C 239.5,43.5 239.5,39.5 239.5,35.5C 243.5,35.5 247.5,35.5 251.5,35.5C 251.5,37.1667 251.5,38.8333 251.5,40.5C 255.5,40.5 259.5,40.5 263.5,40.5C 263.5,38.8333 263.5,37.1667 263.5,35.5C 267.5,35.5 271.5,35.5 275.5,35.5C 275.5,31.5 275.5,27.5 275.5,23.5 Z"/></g>
<g><path style="opacity:1" fill="#fefffe" d="M 359.5,23.5 C 363.5,23.5 367.5,23.5 371.5,23.5C 371.5,27.5 371.5,31.5 371.5,35.5C 375.5,35.5 379.5,35.5 383.5,35.5C 383.5,40.1667 383.5,44.8333 383.5,49.5C 371.5,49.5 359.5,49.5 347.5,49.5C 351.029,47.5772 355.029,46.9106 359.5,47.5C 359.5,39.5 359.5,31.5 359.5,23.5 Z"/></g>
<g><path style="opacity:1" fill="#000000" d="M 503.5,49.5 C 499.5,49.5 495.5,49.5 491.5,49.5C 491.5,40.8333 491.5,32.1667 491.5,23.5C 498.833,23.5 506.167,23.5 513.5,23.5C 513.5,27.5 513.5,31.5 513.5,35.5C 510.167,35.5 506.833,35.5 503.5,35.5C 503.5,40.1667 503.5,44.8333 503.5,49.5 Z"/></g>
<g><path style="opacity:1" fill="#000000" d="M 647.5,23.5 C 647.5,27.5 647.5,31.5 647.5,35.5C 643.5,35.5 639.5,35.5 635.5,35.5C 635.5,31.5 635.5,27.5 635.5,23.5C 639.5,23.5 643.5,23.5 647.5,23.5 Z"/></g>
<g><path style="opacity:1" fill="#000000" d="M 659.5,23.5 C 663.5,23.5 667.5,23.5 671.5,23.5C 671.5,27.5 671.5,31.5 671.5,35.5C 675.5,35.5 679.5,35.5 683.5,35.5C 683.5,39.5 683.5,43.5 683.5,47.5C 699.5,47.5 715.5,47.5 731.5,47.5C 731.5,43.5 731.5,39.5 731.5,35.5C 735.5,35.5 739.5,35.5 743.5,35.5C 743.5,40.1667 743.5,44.8333 743.5,49.5C 715.5,49.5 687.5,49.5 659.5,49.5C 659.5,40.8333 659.5,32.1667 659.5,23.5 Z"/></g>
<g><path style="opacity:1" fill="#000000" d="M 731.5,35.5 C 723.5,35.5 715.5,35.5 707.5,35.5C 707.5,31.5 707.5,27.5 707.5,23.5C 715.5,23.5 723.5,23.5 731.5,23.5C 731.5,27.5 731.5,31.5 731.5,35.5 Z"/></g>
<g><path style="opacity:1" fill="#fefffe" d="M 767.5,35.5 C 763.5,35.5 759.5,35.5 755.5,35.5C 755.5,31.5 755.5,27.5 755.5,23.5C 759.5,23.5 763.5,23.5 767.5,23.5C 767.5,27.5 767.5,31.5 767.5,35.5 Z"/></g>
<g><path style="opacity:1" fill="#fefffe" d="M 791.5,35.5 C 787.5,35.5 783.5,35.5 779.5,35.5C 779.5,31.5 779.5,27.5 779.5,23.5C 783.5,23.5 787.5,23.5 791.5,23.5C 791.5,27.5 791.5,31.5 791.5,35.5 Z"/></g>
<g><path style="opacity:1" fill="#fefffe" d="M 863.5,23.5 C 867.5,23.5 871.5,23.5 875.5,23.5C 875.5,27.5 875.5,31.5 875.5,35.5C 875.5,31.5 875.5,27.5 875.5,23.5C 871.5,23.5 867.5,23.5 863.5,23.5 Z"/></g>
<g><path style="opacity:1" fill="#040404" d="M 1055.5,23.5 C 1059.5,23.5 1063.5,23.5 1067.5,23.5C 1067.5,27.5 1067.5,31.5 1067.5,35.5C 1067.5,39.5 1067.5,43.5 1067.5,47.5C 1063.03,46.9106 1059.03,47.5772 1055.5,49.5C 1051.5,49.5 1047.5,49.5 1043.5,49.5C 1039.97,47.5772 1035.97,46.9106 1031.5,47.5C 1031.5,40.8333 1031.5,34.1667 1031.5,27.5C 1036.17,27.5 1040.83,27.5 1045.5,27.5C 1045.5,26.1667 1045.5,24.8333 1045.5,23.5C 1048.83,23.5 1052.17,23.5 1055.5,23.5 Z"/></g>
<g><path style="opacity:1" fill="#fefffe" d="M 1055.5,23.5 C 1059.5,23.5 1063.5,23.5 1067.5,23.5C 1067.5,27.5 1067.5,31.5 1067.5,35.5C 1063.5,35.5 1059.5,35.5 1055.5,35.5C 1055.5,31.5 1055.5,27.5 1055.5,23.5 Z"/></g>
<g><path style="opacity:1" fill="#fefffe" d="M 1211.5,23.5 C 1211.5,27.5 1211.5,31.5 1211.5,35.5C 1203.5,35.5 1195.5,35.5 1187.5,35.5C 1187.5,31.5 1187.5,27.5 1187.5,23.5C 1195.5,23.5 1203.5,23.5 1211.5,23.5 Z"/></g>
<g><path style="opacity:1" fill="#000000" d="M 1211.5,23.5 C 1215.5,23.5 1219.5,23.5 1223.5,23.5C 1223.5,27.5 1223.5,31.5 1223.5,35.5C 1219.5,35.5 1215.5,35.5 1211.5,35.5C 1211.5,31.5 1211.5,27.5 1211.5,23.5 Z"/></g>
<g><path style="opacity:1" fill="#fefffe" d="M 1547.5,35.5 C 1543.5,35.5 1539.5,35.5 1535.5,35.5C 1535.5,31.5 1535.5,27.5 1535.5,23.5C 1539.5,23.5 1543.5,23.5 1547.5,23.5C 1547.5,27.5 1547.5,31.5 1547.5,35.5 Z"/></g>
<g><path style="opacity:1" fill="#fefffe" d="M 1583.5,23.5 C 1583.5,27.5 1583.5,31.5 1583.5,35.5C 1579.5,35.5 1575.5,35.5 1571.5,35.5C 1571.5,31.5 1571.5,27.5 1571.5,23.5C 1575.5,23.5 1579.5,23.5 1583.5,23.5 Z"/></g>
<g><path style="opacity:1" fill="#7c7c7c" d="M 528.5,24.5 C 533.833,24.5 539.167,24.5 544.5,24.5C 544.5,28.1667 544.5,31.8333 544.5,35.5C 543.521,32.3752 543.187,29.0419 543.5,25.5C 538.305,25.8205 533.305,25.4872 528.5,24.5 Z"/></g>
<g><path style="opacity:1" fill="#7d7d7d" d="M 579.5,24.5 C 569.013,25.4944 558.346,25.8278 547.5,25.5C 547.5,27.1667 547.5,28.8333 547.5,30.5C 546.539,28.7354 546.205,26.7354 546.5,24.5C 557.5,24.5 568.5,24.5 579.5,24.5 Z"/></g>
<g><path style="opacity:1" fill="#000000" d="M 587.5,49.5 C 583.5,49.5 579.5,49.5 575.5,49.5C 573.952,48.2057 571.952,47.5391 569.5,47.5C 567.048,47.5391 565.048,48.2057 563.5,49.5C 559.5,49.5 555.5,49.5 551.5,49.5C 551.5,44.8333 551.5,40.1667 551.5,35.5C 559.5,35.5 567.5,35.5 575.5,35.5C 575.229,33.1789 575.896,31.1789 577.5,29.5C 580.768,28.513 584.102,28.1796 587.5,28.5C 587.5,35.5 587.5,42.5 587.5,49.5 Z"/></g>
<g><path style="opacity:1" fill="#000000" d="M 383.5,35.5 C 391.5,35.5 399.5,35.5 407.5,35.5C 407.5,39.5 407.5,43.5 407.5,47.5C 403.029,46.9106 399.029,47.5772 395.5,49.5C 391.5,49.5 387.5,49.5 383.5,49.5C 383.5,44.8333 383.5,40.1667 383.5,35.5 Z"/></g>
<g><path style="opacity:1" fill="#fefffe" d="M 407.5,35.5 C 415.5,35.5 423.5,35.5 431.5,35.5C 431.5,39.5 431.5,43.5 431.5,47.5C 427.029,46.9106 423.029,47.5772 419.5,49.5C 411.5,49.5 403.5,49.5 395.5,49.5C 399.029,47.5772 403.029,46.9106 407.5,47.5C 407.5,43.5 407.5,39.5 407.5,35.5 Z"/></g>
<g><path style="opacity:1" fill="#000000" d="M 431.5,35.5 C 447.5,35.5 463.5,35.5 479.5,35.5C 479.5,39.5 479.5,43.5 479.5,47.5C 475.029,46.9106 471.029,47.5772 467.5,49.5C 451.5,49.5 435.5,49.5 419.5,49.5C 423.029,47.5772 427.029,46.9106 431.5,47.5C 431.5,43.5 431.5,39.5 431.5,35.5 Z"/></g>
<g><path style="opacity:1" fill="#000000" d="M 623.5,49.5 C 615.5,49.5 607.5,49.5 599.5,49.5C 599.5,44.8333 599.5,40.1667 599.5,35.5C 607.5,35.5 615.5,35.5 623.5,35.5C 623.5,40.1667 623.5,44.8333 623.5,49.5 Z"/></g>
<g><path style="opacity:1" fill="#fefffe" d="M 743.5,35.5 C 747.5,35.5 751.5,35.5 755.5,35.5C 755.5,40.1667 755.5,44.8333 755.5,49.5C 751.5,49.5 747.5,49.5 743.5,49.5C 743.5,44.8333 743.5,40.1667 743.5,35.5 Z"/></g>
<g><path style="opacity:1" fill="#000000" d="M 755.5,35.5 C 759.5,35.5 763.5,35.5 767.5,35.5C 767.5,40.1667 767.5,44.8333 767.5,49.5C 763.5,49.5 759.5,49.5 755.5,49.5C 755.5,44.8333 755.5,40.1667 755.5,35.5 Z"/></g>
<g><path style="opacity:1" fill="#fefffe" d="M 767.5,35.5 C 771.5,35.5 775.5,35.5 779.5,35.5C 779.5,39.5 779.5,43.5 779.5,47.5C 783.5,47.5 787.5,47.5 791.5,47.5C 791.5,48.1667 791.5,48.8333 791.5,49.5C 783.5,49.5 775.5,49.5 767.5,49.5C 767.5,44.8333 767.5,40.1667 767.5,35.5 Z"/></g>
<g><path style="opacity:1" fill="#000000" d="M 779.5,35.5 C 783.5,35.5 787.5,35.5 791.5,35.5C 791.5,39.5 791.5,43.5 791.5,47.5C 787.5,47.5 783.5,47.5 779.5,47.5C 779.5,43.5 779.5,39.5 779.5,35.5 Z"/></g>
<g><path style="opacity:1" fill="#fefffe" d="M 791.5,35.5 C 811.5,35.5 831.5,35.5 851.5,35.5C 851.5,40.1667 851.5,44.8333 851.5,49.5C 847.5,49.5 843.5,49.5 839.5,49.5C 837.952,48.2057 835.952,47.5391 833.5,47.5C 831.048,47.5391 829.048,48.2057 827.5,49.5C 819.5,49.5 811.5,49.5 803.5,49.5C 799.971,47.5772 795.971,46.9106 791.5,47.5C 791.5,43.5 791.5,39.5 791.5,35.5 Z"/></g>
<g><path style="opacity:1" fill="#030303" d="M 959.5,49.5 C 943.5,49.5 927.5,49.5 911.5,49.5C 911.5,44.8333 911.5,40.1667 911.5,35.5C 919.5,35.5 927.5,35.5 935.5,35.5C 935.5,36.8333 935.5,38.1667 935.5,39.5C 939.833,39.5 944.167,39.5 948.5,39.5C 948.5,42.1667 948.5,44.8333 948.5,47.5C 952.649,46.9197 956.316,47.5864 959.5,49.5 Z"/></g>
<g><path style="opacity:1" fill="#fefffe" d="M 1067.5,35.5 C 1087.5,35.5 1107.5,35.5 1127.5,35.5C 1127.5,40.1667 1127.5,44.8333 1127.5,49.5C 1111.5,49.5 1095.5,49.5 1079.5,49.5C 1075.97,47.5772 1071.97,46.9106 1067.5,47.5C 1067.5,43.5 1067.5,39.5 1067.5,35.5 Z"/></g>
<g><path style="opacity:1" fill="#000000" d="M 1187.5,35.5 C 1195.5,35.5 1203.5,35.5 1211.5,35.5C 1211.5,39.5 1211.5,43.5 1211.5,47.5C 1203.5,47.5 1195.5,47.5 1187.5,47.5C 1187.5,43.5 1187.5,39.5 1187.5,35.5 Z"/></g>
<g><path style="opacity:1" fill="#fefffe" d="M 1439.5,35.5 C 1439.5,39.5 1439.5,43.5 1439.5,47.5C 1435.5,47.5 1431.5,47.5 1427.5,47.5C 1427.5,43.5 1427.5,39.5 1427.5,35.5C 1431.5,35.5 1435.5,35.5 1439.5,35.5 Z"/></g>
<g><path style="opacity:1" fill="#fefffe" d="M 1451.5,35.5 C 1455.5,35.5 1459.5,35.5 1463.5,35.5C 1463.5,39.5 1463.5,43.5 1463.5,47.5C 1459.5,47.5 1455.5,47.5 1451.5,47.5C 1451.5,43.5 1451.5,39.5 1451.5,35.5 Z"/></g>
<g><path style="opacity:1" fill="#fefffe" d="M 1547.5,35.5 C 1551.5,35.5 1555.5,35.5 1559.5,35.5C 1559.5,40.1667 1559.5,44.8333 1559.5,49.5C 1555.5,49.5 1551.5,49.5 1547.5,49.5C 1547.5,44.8333 1547.5,40.1667 1547.5,35.5 Z"/></g>
<g><path style="opacity:1" fill="#000000" d="M 1847.5,47.5 C 1842.17,47.5 1836.83,47.5 1831.5,47.5C 1831.5,43.5 1831.5,39.5 1831.5,35.5C 1836.83,35.5 1842.17,35.5 1847.5,35.5C 1847.5,39.5 1847.5,43.5 1847.5,47.5 Z"/></g>
<g><path style="opacity:1" fill="#000000" d="M 527.5,39.5 C 531.5,39.5 535.5,39.5 539.5,39.5C 539.5,42.1667 539.5,44.8333 539.5,47.5C 535.5,47.5 531.5,47.5 527.5,47.5C 527.5,44.8333 527.5,42.1667 527.5,39.5 Z"/></g>
<g><path style="opacity:1" fill="#fefffe" d="M 335.5,49.5 C 329.833,49.5 324.167,49.5 318.5,49.5C 320.915,48.1858 323.748,47.5191 327,47.5C 330.252,47.5191 333.085,48.1858 335.5,49.5 Z"/></g>
<g><path style="opacity:1" fill="#fefffe" d="M 575.5,49.5 C 571.5,49.5 567.5,49.5 563.5,49.5C 565.048,48.2057 567.048,47.5391 569.5,47.5C 571.952,47.5391 573.952,48.2057 575.5,49.5 Z"/></g>
<g><path style="opacity:1" fill="#000000" d="M 791.5,47.5 C 795.971,46.9106 799.971,47.5772 803.5,49.5C 799.5,49.5 795.5,49.5 791.5,49.5C 791.5,48.8333 791.5,48.1667 791.5,47.5 Z"/></g>
<g><path style="opacity:1" fill="#000000" d="M 839.5,49.5 C 835.5,49.5 831.5,49.5 827.5,49.5C 829.048,48.2057 831.048,47.5391 833.5,47.5C 835.952,47.5391 837.952,48.2057 839.5,49.5 Z"/></g>
<g><path style="opacity:1" fill="#fefffe" d="M 1067.5,47.5 C 1067.5,48.1667 1067.5,48.8333 1067.5,49.5C 1063.5,49.5 1059.5,49.5 1055.5,49.5C 1059.03,47.5772 1063.03,46.9106 1067.5,47.5 Z"/></g>
<g><path style="opacity:1" fill="#000000" d="M 1067.5,47.5 C 1071.97,46.9106 1075.97,47.5772 1079.5,49.5C 1075.5,49.5 1071.5,49.5 1067.5,49.5C 1067.5,48.8333 1067.5,48.1667 1067.5,47.5 Z"/></g>
<g><path style="opacity:1" fill="#fefffe" d="M 1151.5,47.5 C 1151.5,48.1667 1151.5,48.8333 1151.5,49.5C 1147.5,49.5 1143.5,49.5 1139.5,49.5C 1143.03,47.5772 1147.03,46.9106 1151.5,47.5 Z"/></g>
<g><path style="opacity:1" fill="#000000" d="M 1151.5,47.5 C 1159.9,46.8665 1167.9,47.5332 1175.5,49.5C 1167.5,49.5 1159.5,49.5 1151.5,49.5C 1151.5,48.8333 1151.5,48.1667 1151.5,47.5 Z"/></g>
<g><path style="opacity:1" fill="#fefffe" d="M 1283.5,47.5 C 1283.5,48.1667 1283.5,48.8333 1283.5,49.5C 1281.17,49.5 1278.83,49.5 1276.5,49.5C 1278.28,47.6565 1280.61,46.9898 1283.5,47.5 Z"/></g>
<g><path style="opacity:1" fill="#000000" d="M 1367.5,47.5 C 1367.5,48.1667 1367.5,48.8333 1367.5,49.5C 1359.5,49.5 1351.5,49.5 1343.5,49.5C 1351.1,47.5332 1359.1,46.8665 1367.5,47.5 Z"/></g>
<g><path style="opacity:1" fill="#fefffe" d="M 1367.5,47.5 C 1371.97,46.9106 1375.97,47.5772 1379.5,49.5C 1375.5,49.5 1371.5,49.5 1367.5,49.5C 1367.5,48.8333 1367.5,48.1667 1367.5,47.5 Z"/></g>
<g><path style="opacity:1" fill="#fefffe" d="M 1427.5,47.5 C 1427.5,48.1667 1427.5,48.8333 1427.5,49.5C 1415.5,49.5 1403.5,49.5 1391.5,49.5C 1403.12,47.5209 1415.12,46.8542 1427.5,47.5 Z"/></g>
<g><path style="opacity:1" fill="#fefffe" d="M 1487.5,49.5 C 1483.5,49.5 1479.5,49.5 1475.5,49.5C 1477.05,48.2057 1479.05,47.5391 1481.5,47.5C 1483.95,47.5391 1485.95,48.2057 1487.5,49.5 Z"/></g>
<g><path style="opacity:1" fill="#fefffe" d="M 1595.5,49.5 C 1587.5,49.5 1579.5,49.5 1571.5,49.5C 1575.11,48.176 1579.11,47.5093 1583.5,47.5C 1587.89,47.5093 1591.89,48.176 1595.5,49.5 Z"/></g>
<g><path style="opacity:1" fill="#fefffe" d="M 1667.5,47.5 C 1667.5,48.1667 1667.5,48.8333 1667.5,49.5C 1659.5,49.5 1651.5,49.5 1643.5,49.5C 1651.1,47.5332 1659.1,46.8665 1667.5,47.5 Z"/></g>
<g><path style="opacity:1" fill="#000000" d="M 1667.5,47.5 C 1675.9,46.8665 1683.9,47.5332 1691.5,49.5C 1683.5,49.5 1675.5,49.5 1667.5,49.5C 1667.5,48.8333 1667.5,48.1667 1667.5,47.5 Z"/></g>
<g><path style="opacity:1" fill="#fefffe" d="M 1895.5,49.5 C 1891.5,49.5 1887.5,49.5 1883.5,49.5C 1885.05,48.2057 1887.05,47.5391 1889.5,47.5C 1891.95,47.5391 1893.95,48.2057 1895.5,49.5 Z"/></g>
<g><path style="opacity:1" fill="#fefffe" d="M 1931.5,47.5 C 1931.5,48.1667 1931.5,48.8333 1931.5,49.5C 1923.5,49.5 1915.5,49.5 1907.5,49.5C 1915.1,47.5332 1923.1,46.8665 1931.5,47.5 Z"/></g>
<g><path style="opacity:1" fill="#000000" d="M 1931.5,47.5 C 1942.88,46.8564 1953.88,47.523 1964.5,49.5C 1953.5,49.5 1942.5,49.5 1931.5,49.5C 1931.5,48.8333 1931.5,48.1667 1931.5,47.5 Z"/></g>
</svg>
