<svg width="107" height="30" viewBox="0 0 107 30" fill="none" xmlns="http://www.w3.org/2000/svg">
<mask id="mask0_20_466" style="mask-type:luminance" maskUnits="userSpaceOnUse" x="0" y="0" width="107" height="30">
<path d="M107 0H0V29.5319H107V0Z" fill="white"/>
</mask>
<g mask="url(#mask0_20_466)">
<path d="M100.813 14.2143H70.417L69.7065 13.5038V13.0626L70.417 12.3521H83.5274L90.0169 5.26941H94.501C94.9672 4.80323 95.2285 4.54194 95.6946 4.07566V1.19583C95.2286 0.729743 94.9674 0.468269 94.5014 0.00217945L88.4027 0.000183105L81.3903 7.01073H70.5661L64.5142 13.0628V13.5038L70.566 19.5556H100.813L101.659 20.401V22.3408L99.8087 24.1908H92.7962C92.33 24.6569 92.0686 24.9184 91.6024 25.3846V28.3385C92.0686 28.8046 92.33 29.066 92.7962 29.5322H99.8087L107 22.3409V20.4009L100.813 14.2143Z" fill="white"/>
<path d="M69.2471 5.34103C69.5484 5.21143 69.8128 5.09753 70.114 4.96793L73.7627 1.11266C73.534 0.581249 73.5127 0.531807 73.284 0.000396729H61.2665L56.2815 4.98552V22.4574C55.8157 22.9235 55.5544 23.185 55.0887 23.6511L53.3214 23.6525V23.6624H53.2477C52.4852 22.8999 52.0586 22.4696 51.2962 21.7071C51.298 18.6824 51.3015 13.2067 51.3015 13.2067L45.2497 7.15499H35.2488L29.1967 13.2069V21.6478L27.2003 23.6443H11.4028L5.35511 17.5966V6.05224L6.06555 5.34169H8.1003L19.3185 15.5413H24.4327C25.4619 14.5155 26.041 13.9387 27.0703 12.9129L27.0876 7.97013C28.117 6.94439 28.6959 6.36743 29.7253 5.34169H49.817C50.1455 5.18272 50.4247 5.04751 50.7531 4.88863L54.1199 0.632594C53.9778 0.338982 53.9561 0.293913 53.8139 0.000396729H30.3672C27.2023 3.16528 25.4278 4.93979 22.2629 8.10457V10.2001H21.045L9.40216 0.000396729H5.2236C3.18353 2.04237 2.04065 3.18629 0.000488281 5.22817L0.0137082 20.0792L8.92009 28.9856H28.6058L34.5381 23.0533V13.2067L35.2487 12.4963H45.2496L45.9499 13.2069V22.6485C48.4243 25.123 49.8115 26.5201 52.2859 28.9946H60.4881C60.9544 28.5268 61.2153 28.2751 61.6817 27.8075L61.6242 6.17147C61.9474 5.84629 62.1295 5.6663 62.4524 5.34103H69.2471Z" fill="white"/>
</g>
</svg>
