<svg xmlns:xlink="http://www.w3.org/1999/xlink" width="148" xmlns="http://www.w3.org/2000/svg" height="74.634" id="screenshot-083cc282-d0c6-80e9-8003-552602541116" viewBox="0 0 148 74.634" style="-webkit-print-color-adjust: exact;" fill="none" version="1.1"><g xmlns:xlink="http://www.w3.org/1999/xlink" width="486" xml:space="preserve" height="213" id="shape-083cc282-d0c6-80e9-8003-552602541116" style="fill: rgb(0, 0, 0);" ry="0" rx="0" version="1.1"><g id="shape-083cc282-d0c6-80e9-8003-5526025441a5" rx="0" ry="0" style="fill: rgb(0, 0, 0);"><g id="shape-083cc282-d0c6-80e9-8003-5526025441a6"><g class="fills" id="fills-083cc282-d0c6-80e9-8003-5526025441a6"><rect rx="0" ry="0" x="0" y="0.0000109967002117628" transform="matrix(1.000000, 0.000000, 0.000000, 1.000000, 0.000000, 0.000000)" width="148" height="63.99998900329973" style="fill-rule: evenodd; clip-rule: evenodd; stroke-linejoin: round; stroke-miterlimit: 2; fill: none;"/></g></g><g id="shape-083cc282-d0c6-80e9-8003-5526025441a7" rx="0" ry="0" style="fill: rgb(0, 0, 0);"><g id="shape-083cc282-d0c6-80e9-8003-5526025441a8" rx="0" ry="0" style="fill: rgb(0, 0, 0);"><g id="shape-083cc282-d0c6-80e9-8003-5526025441a9"><g class="fills" id="fills-083cc282-d0c6-80e9-8003-5526025441a9"><path rx="0" ry="0" d="M79.404,36.022C80.894,35.336,85.482,32.773,85.780,30.994C85.801,30.872,85.777,30.759,85.708,30.656L84.107,28.246C84.054,28.165,84.029,28.070,84.035,27.976C84.181,25.753,87.694,24.027,89.621,23.418C90.478,23.147,91.266,23.105,91.985,23.289C93.012,23.553,95.833,25.165,94.698,26.528C93.624,27.817,91.706,29.407,91.270,30.788C90.748,32.442,91.472,34.008,92.345,35.426C92.401,35.517,92.414,35.627,92.380,35.728L90.940,39.920C90.905,40.020,90.810,40.089,90.703,40.089L83.829,40.092C83.680,40.092,83.610,40.019,83.616,39.872C83.786,35.779,78.088,38.085,77.196,39.937C77.145,40.041,77.063,40.092,76.948,40.092L70.528,40.089C70.521,40.089,70.515,40.089,70.509,40.088C70.442,40.077,70.396,40.013,70.406,39.945C70.407,39.939,70.409,39.933,70.411,39.927C72.042,34.877,73.741,29.841,75.426,24.795C76.255,22.315,75.093,19.773,74.166,17.290C73.649,15.906,74.454,15.453,75.560,14.665C78.666,12.452,83.497,9.573,84.087,15.906C84.275,17.926,83.767,20.180,83.073,22.386C81.699,26.755,80.262,31.107,78.741,35.433C78.724,35.484,78.715,35.537,78.715,35.590C78.715,35.852,78.933,36.067,79.199,36.067C79.270,36.067,79.340,36.051,79.404,36.022ZZM130.931,36.019C132.551,35.275,136.795,32.931,137.307,31.038C137.344,30.901,137.323,30.773,137.245,30.656L135.603,28.192C135.543,28.103,135.520,27.993,135.537,27.884C135.900,25.695,138.921,24.236,140.783,23.516C142.862,22.712,144.674,23.239,146.221,25.093C146.636,25.589,146.615,26.101,146.159,26.629C145.194,27.746,143.348,29.316,142.872,30.537C142.245,32.145,142.932,34.005,143.861,35.372C143.927,35.468,143.943,35.589,143.906,35.697L142.463,39.923C142.430,40.022,142.336,40.089,142.229,40.089L135.362,40.092C135.220,40.092,135.149,40.022,135.149,39.883C135.172,35.771,129.583,38.095,128.736,39.933C128.685,40.042,128.601,40.096,128.481,40.096L122.136,40.089C121.976,40.089,121.922,40.015,121.971,39.866C123.492,35.284,124.971,30.703,126.485,26.145C127.050,24.447,127.505,23.327,127.056,21.550C126.725,20.242,126.270,18.824,125.688,17.297C125.398,16.534,125.554,15.871,126.156,15.304C126.635,14.853,127.662,14.182,129.241,13.291C130.624,12.510,131.686,12.085,132.429,12.015C136.657,11.618,135.667,19.053,134.892,21.516C133.424,26.176,131.890,30.817,130.268,35.430C130.250,35.480,130.241,35.533,130.241,35.586C130.241,35.848,130.459,36.064,130.725,36.064C130.796,36.064,130.866,36.048,130.931,36.019ZZM60.050,36.739L63.138,35.447C63.225,35.411,63.307,35.420,63.382,35.477C64.361,36.219,64.451,37.062,63.671,37.988C62.301,39.614,59.250,40.084,57.285,40.092C56.804,40.094,56.458,39.842,56.247,39.335C55.355,37.186,56.578,34.052,57.522,32.083C57.830,31.440,57.755,30.635,57.089,30.348C54.652,29.296,52.738,29.924,51.345,32.229C50.665,33.355,49.590,35.902,48.174,39.889C48.133,40.006,48.019,40.086,47.892,40.086L41.413,40.089L41.413,40.089C41.326,40.089,41.255,40.019,41.255,39.933C41.255,39.917,41.257,39.901,41.262,39.886C42.109,37.282,42.974,34.707,43.849,32.158C43.966,31.817,43.969,31.432,43.852,31.004C43.824,30.899,43.759,30.807,43.670,30.744L42.241,29.722C42.186,29.682,42.146,29.625,42.128,29.559C41.569,27.561,46.446,24.987,47.745,24.372C50.516,23.061,51.750,25.039,52.884,27.130C52.948,27.247,53.036,27.270,53.148,27.198C55.487,25.694,57.789,24.114,60.098,23.442C62.564,22.723,65.826,23.548,68.099,24.606C68.202,24.653,68.236,24.731,68.199,24.839C67.917,25.655,67.548,26.263,67.106,26.666C63.951,29.544,61.146,32.341,59.785,36.502C59.779,36.522,59.776,36.542,59.776,36.563C59.776,36.668,59.864,36.756,60.050,36.739ZC59.998,36.756,60.025,36.750,60.050,36.739ZZM110.367,32.344L111.913,35.521C112.084,35.874,111.979,36.300,111.662,36.536L107.210,39.862C107.009,40.012,106.766,40.092,106.516,40.092L102.816,40.092C102.705,40.092,102.600,40.038,102.538,39.947L101.129,37.886C101.068,37.796,100.963,37.742,100.851,37.744L99.577,37.765C99.562,37.765,99.547,37.764,99.533,37.760C99.437,37.740,99.376,37.644,99.398,37.548C99.401,37.534,99.406,37.520,99.412,37.507C100.482,35.323,104.387,33.733,106.523,32.581C107.300,32.162,107.889,31.636,108.247,30.906C108.290,30.820,108.312,30.725,108.312,30.630C108.312,30.354,108.129,30.109,107.863,30.026C105.615,29.326,103.306,28.965,100.934,29.031C100.910,29.032,100.887,29.028,100.866,29.019C100.791,28.984,100.757,28.894,100.792,28.818C100.802,28.797,100.816,28.779,100.834,28.764C103.166,26.812,107.392,23.345,110.491,23.536C113.569,23.726,116.601,24.212,119.591,24.971C119.674,24.992,119.733,25.067,119.733,25.151C119.733,25.179,119.726,25.207,119.714,25.232C119.513,25.645,119.185,26.018,118.728,26.352C116.363,28.080,114.155,29.512,112.109,30.652C111.399,31.047,110.832,31.489,110.412,31.982C110.317,32.092,110.303,32.213,110.367,32.344ZZM25.041,29.986C24.931,29.997,24.847,30.048,24.786,30.138C22.874,32.991,21.940,36.671,20.839,39.920C20.806,40.018,20.712,40.085,20.606,40.086L14.274,40.089C14.135,40.089,14.087,40.024,14.130,39.893C14.964,37.347,15.793,34.820,16.631,32.314C16.739,31.992,16.905,31.890,17.164,31.718C21.202,29.032,25.370,26.555,29.651,24.261C30.157,23.990,30.672,23.853,31.197,23.848C32.664,23.835,39.029,24.673,38.287,27.076C37.071,31.014,35.833,35.186,34.563,39.588C34.470,39.913,34.250,40.077,33.904,40.079L27.452,40.092C27.434,40.092,27.417,40.090,27.399,40.087C27.269,40.058,27.186,39.927,27.216,39.796C27.219,39.779,27.225,39.763,27.232,39.747C28.499,37.065,31.430,29.338,25.041,29.986ZZM20.850,47.184C21.491,45.339,22.129,43.484,22.770,41.622C22.811,41.502,22.896,41.442,23.024,41.442L29.805,41.446L29.807,41.446C29.919,41.446,30.010,41.536,30.010,41.646C30.010,41.665,30.007,41.684,30.001,41.703C29.288,44.071,28.596,46.431,27.899,48.775C27.303,50.777,26.979,53.389,26.250,55.654C26.110,56.089,25.858,56.466,25.494,56.784C21.714,60.088,13.976,68.260,8.623,67.019C5.861,66.379,4.233,63.933,1.155,63.761C1.029,63.754,0.980,63.690,1.007,63.568C1.177,62.801,1.534,62.229,2.083,61.849C5.216,59.679,7.800,57.456,9.853,55.204C10.528,54.463,10.398,53.821,9.462,53.275C8.385,52.648,7.529,51.675,6.882,50.362C6.829,50.255,6.820,50.132,6.858,50.017L9.644,41.622C9.682,41.504,9.765,41.446,9.891,41.446L16.336,41.442C16.469,41.442,16.525,41.507,16.504,41.635L15.930,45.354C15.891,45.604,15.968,45.813,16.160,45.980C16.892,46.611,17.689,47.224,18.548,47.824C19.489,48.481,20.482,48.240,20.850,47.184ZZM11.540,58.053L17.047,60.289C17.154,60.332,17.228,60.299,17.270,60.191C18.179,57.826,19.344,55.036,19.149,52.473C19.142,52.374,19.095,52.347,19.008,52.395C16.308,53.876,13.783,55.607,11.468,57.619C11.453,57.632,11.440,57.647,11.429,57.662C11.344,57.779,11.371,57.942,11.540,58.053ZC11.504,58.035,11.521,58.045,11.540,58.053ZZM33.574,51.279C34.637,48.054,35.724,44.831,36.807,41.602C36.841,41.498,36.916,41.446,37.030,41.446L43.457,41.446L43.459,41.446C43.536,41.446,43.600,41.508,43.600,41.585C43.600,41.601,43.597,41.617,43.591,41.632C43.064,43.087,42.285,44.931,42.313,46.427C42.343,47.966,43.087,49.526,43.286,50.670C43.416,51.421,43.028,52.100,42.392,52.588C40.726,53.866,38.846,55.475,36.961,56.283C36.863,56.325,36.763,56.330,36.662,56.296C34.980,55.743,33.845,54.823,33.272,53.505C33.007,52.896,33.344,51.976,33.574,51.279ZZM71.067,47.404C71.594,48.090,72.826,49.492,72.719,50.385C72.488,52.334,67.286,55.473,65.636,56.280C65.503,56.345,65.339,56.302,65.254,56.178L62.671,52.321C62.563,52.161,62.535,51.960,62.596,51.776L65.972,41.554C65.998,41.482,66.049,41.446,66.127,41.446L72.609,41.442C72.701,41.444,72.776,41.518,72.776,41.608C72.776,41.626,72.773,41.643,72.767,41.659L71.002,47.032C70.961,47.159,70.985,47.298,71.067,47.404ZZM86.090,47.607C86.892,48.956,86.969,49.881,85.945,51.177C84.516,52.986,82.676,54.166,80.425,54.713C75.551,55.897,76.783,50.723,77.601,48.318C78.352,46.112,78.979,43.871,79.459,41.591C79.480,41.492,79.541,41.442,79.642,41.442L86.327,41.446C86.482,41.446,86.537,41.519,86.492,41.666C85.910,43.546,84.982,45.745,86.090,47.607ZZM86.859,72.704C90.788,69.469,97.467,65.003,94.169,58.919C92.565,55.958,90.155,53.042,91.188,49.533C92.096,46.447,95.819,43.782,98.738,42.244C98.806,42.209,98.862,42.155,98.900,42.089L99.202,41.574C99.257,41.482,99.339,41.436,99.446,41.436L101.590,41.453C101.654,41.455,101.706,41.507,101.706,41.571C101.706,41.615,101.681,41.656,101.641,41.676C98.853,43.075,99.201,47.124,100.336,49.407C102.083,52.924,104.554,55.775,102.964,59.958C102.517,61.133,101.833,62.318,100.913,63.514C97.537,67.901,91.455,73.760,85.732,74.632C85.723,74.634,85.713,74.634,85.704,74.634C85.599,74.634,85.512,74.549,85.512,74.445C85.512,74.415,85.519,74.385,85.533,74.358C85.857,73.744,86.283,73.178,86.859,72.704ZZM122.583,47.337C123.327,48.496,124.868,49.795,123.926,51.258C123.805,51.447,123.347,51.907,122.552,52.635C120.945,54.107,119.149,55.320,117.169,56.280C117.035,56.345,116.870,56.301,116.788,56.178L114.163,52.270C114.076,52.137,114.056,51.995,114.105,51.844L117.478,41.632C117.519,41.503,117.609,41.439,117.746,41.439L124.180,41.446C124.308,41.446,124.353,41.506,124.314,41.625L122.542,47.015C122.505,47.128,122.518,47.236,122.583,47.337ZZM137.393,47.086C137.934,48.494,138.804,49.363,137.729,50.873C136.272,52.920,134.277,54.215,131.741,54.757C126.901,55.791,128.467,50.256,129.230,47.925C129.910,45.850,130.521,43.753,131.017,41.625C131.045,41.504,131.122,41.442,131.250,41.442L137.918,41.446C138.051,41.448,138.097,41.510,138.056,41.632C137.345,43.727,136.708,45.307,137.393,47.086ZZ" style="fill-rule: evenodd; clip-rule: evenodd; stroke-linejoin: round; stroke-miterlimit: 2; fill: rgb(255, 255, 255); fill-opacity: 1;"/></g></g></g></g></g></g></svg>