<svg xmlns:xlink="http://www.w3.org/1999/xlink" width="38" xmlns="http://www.w3.org/2000/svg" height="38" id="screenshot-083cc282-d0c6-80e9-8003-55260254111d" viewBox="0 0 38 38" style="-webkit-print-color-adjust: exact;" fill="none" version="1.1"><g xmlns:xlink="http://www.w3.org/1999/xlink" width="512px" xml:space="preserve" height="512px" x="0px" id="shape-083cc282-d0c6-80e9-8003-55260254111d" style="fill: rgb(0, 0, 0);" ry="0" rx="0" y="0px" version="1.1"><g id="shape-083cc282-d0c6-80e9-8003-5526025441ab" rx="0" ry="0" style="fill: rgb(0, 0, 0);"><g id="shape-083cc282-d0c6-80e9-8003-5526025441bb"><g class="fills" id="fills-083cc282-d0c6-80e9-8003-5526025441bb"><path rx="0" ry="0" d="M27.513,0.000L10.486,0.000C4.704,0.000,0.000,4.704,0.000,10.487L0.000,27.513C0.000,33.296,4.704,38.000,10.486,38.000L27.513,38.000C33.296,38.000,38.000,33.295,38.000,27.513L38.000,10.487C38.000,4.704,33.296,0.000,27.513,0.000ZZM34.628,27.513C34.628,31.437,31.437,34.628,27.513,34.628L10.486,34.628C6.563,34.628,3.372,31.437,3.372,27.513L3.372,10.487C3.372,6.563,6.563,3.372,10.486,3.372L27.513,3.372C31.436,3.372,34.628,6.563,34.628,10.487L34.628,27.513ZZ" style="fill: rgb(190, 205, 202); fill-opacity: 0.53125;"/></g></g><g id="shape-083cc282-d0c6-80e9-8003-5526025441bc"><g class="fills" id="fills-083cc282-d0c6-80e9-8003-5526025441bc"><path rx="0" ry="0" d="M19.000,9.209C13.601,9.209,9.208,13.601,9.208,19.000C9.208,24.399,13.601,28.791,19.000,28.791C24.399,28.791,28.791,24.399,28.791,19.000C28.791,13.601,24.399,9.209,19.000,9.209ZZM19.000,25.420C15.460,25.420,12.580,22.540,12.580,19.000C12.580,15.460,15.460,12.580,19.000,12.580C22.540,12.580,25.420,15.460,25.420,19.000C25.420,22.540,22.540,25.420,19.000,25.420ZZ" style="fill: rgb(190, 205, 202); fill-opacity: 0.53125;"/></g></g><g id="shape-083cc282-d0c6-80e9-8003-5526025441bd"><g class="fills" id="fills-083cc282-d0c6-80e9-8003-5526025441bd"><path rx="0" ry="0" d="M29.202,6.350C28.553,6.350,27.914,6.613,27.456,7.074C26.995,7.532,26.730,8.171,26.730,8.822C26.730,9.472,26.995,10.110,27.456,10.571C27.914,11.030,28.553,11.295,29.202,11.295C29.854,11.295,30.490,11.030,30.951,10.571C31.412,10.110,31.675,9.472,31.675,8.822C31.675,8.171,31.412,7.532,30.951,7.074C30.492,6.613,29.854,6.350,29.202,6.350ZZ" style="fill: rgb(190, 205, 202); fill-opacity: 0.53125;"/></g></g></g><g id="shape-083cc282-d0c6-80e9-8003-5526025441ac" rx="0" ry="0" style="fill: rgb(0, 0, 0);"/><g id="shape-083cc282-d0c6-80e9-8003-5526025441ad" rx="0" ry="0" style="fill: rgb(0, 0, 0);"/><g id="shape-083cc282-d0c6-80e9-8003-5526025441ae" rx="0" ry="0" style="fill: rgb(0, 0, 0);"/><g id="shape-083cc282-d0c6-80e9-8003-5526025441af" rx="0" ry="0" style="fill: rgb(0, 0, 0);"/><g id="shape-083cc282-d0c6-80e9-8003-5526025441b0" rx="0" ry="0" style="fill: rgb(0, 0, 0);"/><g id="shape-083cc282-d0c6-80e9-8003-5526025441b1" rx="0" ry="0" style="fill: rgb(0, 0, 0);"/><g id="shape-083cc282-d0c6-80e9-8003-5526025441b2" rx="0" ry="0" style="fill: rgb(0, 0, 0);"/><g id="shape-083cc282-d0c6-80e9-8003-5526025441b3" rx="0" ry="0" style="fill: rgb(0, 0, 0);"/><g id="shape-083cc282-d0c6-80e9-8003-5526025441b4" rx="0" ry="0" style="fill: rgb(0, 0, 0);"/><g id="shape-083cc282-d0c6-80e9-8003-5526025441b5" rx="0" ry="0" style="fill: rgb(0, 0, 0);"/><g id="shape-083cc282-d0c6-80e9-8003-5526025441b6" rx="0" ry="0" style="fill: rgb(0, 0, 0);"/><g id="shape-083cc282-d0c6-80e9-8003-5526025441b7" rx="0" ry="0" style="fill: rgb(0, 0, 0);"/><g id="shape-083cc282-d0c6-80e9-8003-5526025441b8" rx="0" ry="0" style="fill: rgb(0, 0, 0);"/><g id="shape-083cc282-d0c6-80e9-8003-5526025441b9" rx="0" ry="0" style="fill: rgb(0, 0, 0);"/><g id="shape-083cc282-d0c6-80e9-8003-5526025441ba" rx="0" ry="0" style="fill: rgb(0, 0, 0);"/></g></svg>