<svg xmlns:xlink="http://www.w3.org/1999/xlink" width="38" xmlns="http://www.w3.org/2000/svg" height="38" id="screenshot-083cc282-d0c6-80e9-8003-55260254111e" viewBox="0 0 38 38" style="-webkit-print-color-adjust: exact;" fill="none" version="1.1"><g xmlns:xlink="http://www.w3.org/1999/xlink" width="512px" xml:space="preserve" height="512px" x="0px" id="shape-083cc282-d0c6-80e9-8003-55260254111e" style="fill: rgb(0, 0, 0);" ry="0" rx="0" y="0px" version="1.1"><g id="shape-083cc282-d0c6-80e9-8003-5526025441bf" rx="0" ry="0" style="fill: rgb(0, 0, 0);"><g id="shape-083cc282-d0c6-80e9-8003-5526025441cf" rx="0" ry="0" style="fill: rgb(0, 0, 0);"><g id="shape-083cc282-d0c6-80e9-8003-5526025441d0"><g class="fills" id="fills-083cc282-d0c6-80e9-8003-5526025441d0"><path rx="0" ry="0" d="M38.000,7.218C36.587,7.838,35.081,8.248,33.511,8.448C35.126,7.484,36.359,5.968,36.938,4.142C35.433,5.040,33.770,5.674,31.998,6.028C30.569,4.505,28.531,3.563,26.308,3.563C21.995,3.563,18.523,7.063,18.523,11.355C18.523,11.972,18.575,12.566,18.703,13.131C12.226,12.816,6.496,9.711,2.646,4.983C1.974,6.149,1.579,7.484,1.579,8.921C1.579,11.619,2.969,14.010,5.040,15.395C3.788,15.371,2.560,15.008,1.520,14.435C1.520,14.459,1.520,14.490,1.520,14.521C1.520,18.307,4.220,21.451,7.762,22.175C7.127,22.349,6.436,22.432,5.719,22.432C5.220,22.432,4.717,22.403,4.244,22.299C5.253,25.384,8.118,27.652,11.524,27.726C8.873,29.799,5.508,31.048,1.864,31.048C1.226,31.048,0.613,31.020,0.000,30.942C3.451,33.167,7.541,34.438,11.951,34.438C26.287,34.438,34.124,22.563,34.124,12.269C34.124,11.925,34.112,11.592,34.095,11.262C35.642,10.165,36.941,8.795,38.000,7.218ZZ" style="fill: rgb(190, 205, 202); fill-opacity: 0.53125;"/></g></g></g></g><g id="shape-083cc282-d0c6-80e9-8003-5526025441c0" rx="0" ry="0" style="fill: rgb(0, 0, 0);"/><g id="shape-083cc282-d0c6-80e9-8003-5526025441c1" rx="0" ry="0" style="fill: rgb(0, 0, 0);"/><g id="shape-083cc282-d0c6-80e9-8003-5526025441c2" rx="0" ry="0" style="fill: rgb(0, 0, 0);"/><g id="shape-083cc282-d0c6-80e9-8003-5526025441c3" rx="0" ry="0" style="fill: rgb(0, 0, 0);"/><g id="shape-083cc282-d0c6-80e9-8003-5526025441c4" rx="0" ry="0" style="fill: rgb(0, 0, 0);"/><g id="shape-083cc282-d0c6-80e9-8003-5526025441c5" rx="0" ry="0" style="fill: rgb(0, 0, 0);"/><g id="shape-083cc282-d0c6-80e9-8003-5526025441c6" rx="0" ry="0" style="fill: rgb(0, 0, 0);"/><g id="shape-083cc282-d0c6-80e9-8003-5526025441c7" rx="0" ry="0" style="fill: rgb(0, 0, 0);"/><g id="shape-083cc282-d0c6-80e9-8003-5526025441c8" rx="0" ry="0" style="fill: rgb(0, 0, 0);"/><g id="shape-083cc282-d0c6-80e9-8003-5526025441c9" rx="0" ry="0" style="fill: rgb(0, 0, 0);"/><g id="shape-083cc282-d0c6-80e9-8003-5526025441ca" rx="0" ry="0" style="fill: rgb(0, 0, 0);"/><g id="shape-083cc282-d0c6-80e9-8003-5526025441cb" rx="0" ry="0" style="fill: rgb(0, 0, 0);"/><g id="shape-083cc282-d0c6-80e9-8003-5526025441cc" rx="0" ry="0" style="fill: rgb(0, 0, 0);"/><g id="shape-083cc282-d0c6-80e9-8003-5526025441cd" rx="0" ry="0" style="fill: rgb(0, 0, 0);"/><g id="shape-083cc282-d0c6-80e9-8003-5526025441ce" rx="0" ry="0" style="fill: rgb(0, 0, 0);"/></g></svg>